<svg width="592" height="594" viewBox="0 0 592 594" fill="none" xmlns="http://www.w3.org/2000/svg">
<rect width="592" height="592" fill="#002677"/>
<path d="M354 0H592V589C592 591.209 590.209 593 588 593H358C355.791 593 354 591.209 354 589V0Z" fill="url(#paint0_linear_84_3269)"/>
<line x1="248.5" y1="1" x2="248.5" y2="593" stroke="white"/>
<line x1="277.5" y1="1" x2="277.5" y2="593" stroke="white"/>
<line x1="10.5" y1="1" x2="10.5" y2="593" stroke="white"/>
<line x1="40.5" y1="1" x2="40.5" y2="593" stroke="white"/>
<line x1="69.5" y1="1" x2="69.5" y2="593" stroke="white"/>
<line x1="99.5" y1="1" x2="99.5" y2="593" stroke="white"/>
<line x1="129.5" y1="1" x2="129.5" y2="593" stroke="white"/>
<line x1="159.5" y1="1" x2="159.5" y2="593" stroke="white"/>
<line x1="188.5" y1="1" x2="188.5" y2="593" stroke="white"/>
<line x1="218.5" y1="1" x2="218.5" y2="593" stroke="white"/>
<line x1="305" y1="12.5" x2="-2.18557e-08" y2="12.5" stroke="white"/>
<line x1="305" y1="318.703" x2="-2.21529e-08" y2="318.703" stroke="white"/>
<line x1="305" y1="42.924" x2="-2.21529e-08" y2="42.9239" stroke="white"/>
<line x1="305" y1="348.145" x2="-2.21529e-08" y2="348.145" stroke="white"/>
<line x1="305" y1="73.348" x2="-2.21529e-08" y2="73.348" stroke="white"/>
<line x1="305" y1="379.551" x2="-2.21529e-08" y2="379.551" stroke="white"/>
<line x1="305" y1="103.772" x2="-2.21529e-08" y2="103.772" stroke="white"/>
<line x1="305" y1="409.975" x2="-2.21529e-08" y2="409.975" stroke="white"/>
<line x1="305" y1="135.177" x2="-2.21529e-08" y2="135.177" stroke="white"/>
<line x1="305" y1="440.399" x2="-2.21529e-08" y2="440.399" stroke="white"/>
<line x1="305" y1="164.62" x2="-2.21529e-08" y2="164.62" stroke="white"/>
<line x1="305" y1="470.823" x2="-2.21529e-08" y2="470.823" stroke="white"/>
<line x1="305" y1="196.025" x2="-2.21529e-08" y2="196.025" stroke="white"/>
<line x1="305" y1="502.228" x2="-2.21529e-08" y2="502.228" stroke="white"/>
<line x1="305" y1="226.449" x2="-2.21529e-08" y2="226.449" stroke="white"/>
<line x1="305" y1="531.671" x2="-2.21529e-08" y2="531.671" stroke="white"/>
<line x1="305" y1="256.873" x2="-2.21529e-08" y2="256.873" stroke="white"/>
<line x1="305" y1="563.076" x2="-2.21529e-08" y2="563.076" stroke="white"/>
<line x1="305" y1="287.297" x2="-2.21529e-08" y2="287.297" stroke="white"/>
<line x1="305" y1="593.5" x2="-2.22695e-08" y2="593.5" stroke="white"/>
<path opacity="0.5" fill-rule="evenodd" clip-rule="evenodd" d="M0 497.236V366.764C19.0639 343.123 48.2658 328 81 328C138.438 328 185 374.562 185 432C185 489.438 138.438 536 81 536C48.2658 536 19.0639 520.877 0 497.236Z" fill="#D9E9FA"/>
<path d="M0 166.18L1.23041e-06 63.0001L199.84 63.0001C202.601 63.0001 204.84 65.2386 204.84 68.0001L204.84 161.18C204.84 163.941 202.601 166.18 199.84 166.18L0 166.18Z" fill="white"/>
<path d="M0 84.5602L2.571e-07 63.0002L199.84 63.0002C202.601 63.0002 204.84 65.2388 204.84 68.0002L204.84 84.5602L0 84.5602Z" fill="#196ECF"/>
<line x1="11.2241" y1="96.3802" x2="192.213" y2="96.3802" stroke="#196ECF"/>
<line x1="11.2241" y1="110.24" x2="192.213" y2="110.24" stroke="#196ECF"/>
<line x1="11.2241" y1="124.1" x2="95.4049" y2="124.1" stroke="#196ECF"/>
<line x1="108.032" y1="124.1" x2="192.213" y2="124.1" stroke="#196ECF"/>
<line x1="11.2241" y1="137.96" x2="95.4049" y2="137.96" stroke="#196ECF"/>
<line x1="108.032" y1="137.96" x2="192.213" y2="137.96" stroke="#196ECF"/>
<rect x="161.847" y="149.74" width="29.8663" height="9.78" rx="4.89" fill="#196ECF" stroke="#196ECF"/>
<rect x="126.771" y="149.74" width="29.8663" height="9.78" rx="4.89" stroke="#196ECF"/>
<rect x="129" y="295" width="194" height="19" rx="9.5" fill="white"/>
<rect x="129" y="295" width="151" height="19" rx="9.5" fill="#196ECF"/>
<path fill-rule="evenodd" clip-rule="evenodd" d="M263.087 592H82.9134C74.0645 576.703 69 558.943 69 540C69 482.562 115.562 436 173 436C230.438 436 277 482.562 277 540C277 558.943 271.936 576.703 263.087 592Z" fill="#196ECF"/>
<path d="M235.52 498.272C236.24 491.072 241.712 487.76 250.928 486.464V481.28C233.504 482 224.144 491.072 224.144 505.184C224.144 514.832 229.472 521.6 237.968 521.6C245.024 521.6 250.64 516.992 250.64 509.648C250.64 503.024 246.608 499.424 241.136 498.272H235.52ZM204.992 498.272C205.856 491.072 211.328 487.76 220.544 486.464V481.28C203.12 482 193.76 491.072 193.76 505.184C193.76 514.832 199.088 521.6 207.584 521.6C214.64 521.6 220.256 516.992 220.256 509.648C220.256 503.024 216.224 499.424 210.752 498.272H204.992Z" fill="white"/>
<path d="M302.67 505.328C301.95 512.528 296.478 515.696 287.262 516.992V522.32C304.686 521.456 314.046 512.528 314.046 498.272C314.046 488.624 308.718 482 300.222 482C293.166 482 287.55 486.464 287.55 493.952C287.55 500.576 291.582 504.032 297.054 505.328H302.67ZM333.054 505.328C332.334 512.528 326.862 515.696 317.646 516.992V522.32C335.07 521.456 344.43 512.528 344.43 498.272C344.43 488.624 339.102 482 330.606 482C323.55 482 317.934 486.464 317.934 493.952C317.934 500.576 321.966 504.032 327.438 505.328H333.054Z" fill="white"/>
<path d="M333.939 50.9393C333.354 51.5251 333.354 52.4749 333.939 53.0607L343.485 62.6066C344.071 63.1924 345.021 63.1924 345.607 62.6066C346.192 62.0208 346.192 61.0711 345.607 60.4853L337.121 52L345.607 43.5147C346.192 42.9289 346.192 41.9792 345.607 41.3934C345.021 40.8076 344.071 40.8076 343.485 41.3934L333.939 50.9393ZM335 53.5H592V50.5H335V53.5Z" fill="white"/>
<path d="M330.939 173.061C331.525 173.646 332.475 173.646 333.061 173.061L342.607 163.515C343.192 162.929 343.192 161.979 342.607 161.393C342.021 160.808 341.071 160.808 340.485 161.393L332 169.879L323.515 161.393C322.929 160.808 321.979 160.808 321.393 161.393C320.808 161.979 320.808 162.929 321.393 163.515L330.939 173.061ZM333.061 78.9393C332.475 78.3536 331.525 78.3536 330.939 78.9393L321.393 88.4853C320.808 89.0711 320.808 90.0208 321.393 90.6066C321.979 91.1924 322.929 91.1924 323.515 90.6066L332 82.1213L340.485 90.6066C341.071 91.1924 342.021 91.1924 342.607 90.6066C343.192 90.0208 343.192 89.0711 342.607 88.4853L333.061 78.9393ZM333.5 172L333.5 80L330.5 80L330.5 172L333.5 172Z" fill="white"/>
<rect x="388" y="120" width="35" height="187" rx="5" transform="rotate(-90 388 120)" fill="#002677"/>
<path d="M396 110.5H418L407 91.5L396 110.5ZM408 107.5H406V105.5H408V107.5ZM408 103.5H406V99.5H408V103.5Z" fill="white"/>
<rect x="464" y="530" width="358" height="128" rx="5" transform="rotate(-90 464 530)" fill="white"/>
<path d="M464 194L464 177C464 174.239 466.239 172 469 172L592 172L592 194L464 194Z" fill="#196ECF"/>
<path d="M498 217C495.791 217 494 218.791 494 221C494 223.209 495.791 225 498 225V217ZM588 225H592V217H588V225ZM498 225H588V217H498V225Z" fill="#999999"/>
<path d="M498 266C495.791 266 494 267.791 494 270C494 272.209 495.791 274 498 274V266ZM588 274H592V266H588V274ZM498 274H588V266H498V274Z" fill="#196ECF"/>
<path d="M515 233C512.791 233 511 234.791 511 237C511 239.209 512.791 241 515 241V233ZM588 241H592V233H588V241ZM515 241H588V233H515V241Z" fill="#999999"/>
<path d="M498 377C495.791 377 494 378.791 494 381C494 383.209 495.791 385 498 385V377ZM588 385H592V377H588V385ZM498 385H588V377H498V385Z" fill="#999999"/>
<line x1="528" y1="253" x2="581" y2="253" stroke="#5A5A5A" stroke-width="8" stroke-linecap="round"/>
<path d="M585 282C582.791 282 581 283.791 581 286C581 288.209 582.791 290 585 290V282ZM588 290H592V282H588V290ZM585 290H588V282H585V290Z" fill="#5A5A5A"/>
<path d="M579 298C576.791 298 575 299.791 575 302C575 304.209 576.791 306 579 306L579 298ZM588 306L592 306L592 298L588 298L588 306ZM579 306L588 306L588 298L579 298L579 306Z" fill="#196ECF"/>
<line x1="515" y1="286" x2="532" y2="286" stroke="#196ECF" stroke-width="8" stroke-linecap="round"/>
<line x1="498" y1="302" x2="526" y2="302" stroke="#999999" stroke-width="8" stroke-linecap="round"/>
<path d="M515 330C512.791 330 511 331.791 511 334C511 336.209 512.791 338 515 338V330ZM588 338H592V330H588V338ZM515 338H588V330H515V338Z" fill="#999999"/>
<path d="M541 362C538.791 362 537 363.791 537 366C537 368.209 538.791 370 541 370V362ZM588 370H592V362H588V370ZM541 370H588V362H541V370Z" fill="#196ECF"/>
<line x1="528" y1="350" x2="582" y2="350" stroke="#999999" stroke-width="8" stroke-linecap="round"/>
<line x1="545" y1="286" x2="574" y2="286" stroke="#196ECF" stroke-width="8" stroke-linecap="round"/>
<line x1="538" y1="302" x2="567" y2="302" stroke="#999999" stroke-width="8" stroke-linecap="round"/>
<path d="M582 314C579.791 314 578 315.791 578 318C578 320.209 579.791 322 582 322V314ZM588 322H592V314H588V322ZM582 322H588V314H582V322Z" fill="#196ECF"/>
<line x1="515" y1="318" x2="569" y2="318" stroke="#196ECF" stroke-width="8" stroke-linecap="round"/>
<path d="M415 490.228L415 445.228L476.254 445.228L494 468.371L476.254 490.228L415 490.228Z" fill="#002677"/>
<path fill-rule="evenodd" clip-rule="evenodd" d="M484.219 490.455H545.259L563.055 468.377L545.259 445H484.219L502.015 468.377L484.219 490.455Z" fill="#196ECF"/>
<path fill-rule="evenodd" clip-rule="evenodd" d="M592 445V490.455H552.164L569.96 468.377L552.164 445H592Z" fill="#D9E9FA"/>
<defs>
<linearGradient id="paint0_linear_84_3269" x1="473" y1="0" x2="473" y2="593" gradientUnits="userSpaceOnUse">
<stop stop-color="#E9E9E9"/>
<stop offset="1" stop-color="#C4C4C4" stop-opacity="0"/>
</linearGradient>
</defs>
</svg>
