<svg width="592" height="592" viewBox="0 0 592 592" fill="none" xmlns="http://www.w3.org/2000/svg">
<rect width="592" height="592" fill="#002677"/>
<path fill-rule="evenodd" clip-rule="evenodd" d="M228 97.5C228 203.815 141.815 290 35.5 290C23.372 290 11.506 288.878 0 286.733V0H201.518C218.347 28.5948 228 61.9202 228 97.5Z" fill="url(#paint0_linear_71_3049)"/>
<line x1="296.5" y1="210" x2="296.5" y2="592" stroke="#196ECF"/>
<line x1="296" y1="563.5" x2="592" y2="563.5" stroke="#196ECF"/>
<line x1="296" y1="266.5" x2="592" y2="266.5" stroke="#196ECF"/>
<line x1="326.5" y1="210" x2="326.5" y2="592" stroke="#196ECF"/>
<line x1="296" y1="534.5" x2="592" y2="534.5" stroke="#196ECF"/>
<line x1="296" y1="237.5" x2="592" y2="237.5" stroke="#196ECF"/>
<line x1="355.5" y1="210" x2="355.5" y2="592" stroke="#196ECF"/>
<line x1="296" y1="504.5" x2="592" y2="504.5" stroke="#196ECF"/>
<line x1="385.5" y1="210" x2="385.5" y2="592" stroke="#196ECF"/>
<line x1="296" y1="474.5" x2="592" y2="474.5" stroke="#196ECF"/>
<line x1="415.5" y1="210" x2="415.5" y2="592" stroke="#196ECF"/>
<line x1="296" y1="445.5" x2="592" y2="445.5" stroke="#196ECF"/>
<line x1="444.5" y1="210" x2="444.5" y2="592" stroke="#196ECF"/>
<line x1="296" y1="415.5" x2="592" y2="415.5" stroke="#196ECF"/>
<line x1="474.5" y1="210" x2="474.5" y2="592" stroke="#196ECF"/>
<line x1="296" y1="385.5" x2="592" y2="385.5" stroke="#196ECF"/>
<line x1="504.5" y1="210" x2="504.5" y2="592" stroke="#196ECF"/>
<line x1="296" y1="355.5" x2="592" y2="355.5" stroke="#196ECF"/>
<line x1="533.5" y1="210" x2="533.5" y2="592" stroke="#196ECF"/>
<line x1="296" y1="326.5" x2="592" y2="326.5" stroke="#196ECF"/>
<line x1="563.5" y1="210" x2="563.5" y2="592" stroke="#196ECF"/>
<line x1="296" y1="296.5" x2="592" y2="296.5" stroke="#196ECF"/>
<rect x="45" y="401" width="291" height="310" rx="5" transform="rotate(-90 45 401)" fill="white"/>
<path d="M45 132L45 115C45 112.239 47.2386 110 50 110L350 110C352.761 110 355 112.239 355 115L355 132L45 132Z" fill="#196ECF"/>
<line x1="71" y1="155" x2="261.66" y2="155" stroke="#999999" stroke-width="8" stroke-linecap="round"/>
<line x1="70.9731" y1="203.973" x2="211.973" y2="203.027" stroke="#196ECF" stroke-width="8" stroke-linecap="round"/>
<line x1="88" y1="171" x2="172.4" y2="171" stroke="#999999" stroke-width="8" stroke-linecap="round"/>
<line x1="168" y1="187" x2="197" y2="187" stroke="#999999" stroke-width="8" stroke-linecap="round"/>
<line x1="71" y1="315" x2="178" y2="315" stroke="#999999" stroke-width="8" stroke-linecap="round"/>
<line x1="101" y1="187" x2="154" y2="187" stroke="#5A5A5A" stroke-width="8" stroke-linecap="round"/>
<line x1="198" y1="300" x2="251" y2="300" stroke="#5A5A5A" stroke-width="8" stroke-linecap="round"/>
<line x1="184" y1="171" x2="237" y2="171" stroke="#196ECF" stroke-width="8" stroke-linecap="round"/>
<line x1="209" y1="187" x2="227" y2="187" stroke="#5A5A5A" stroke-width="8" stroke-linecap="round"/>
<line x1="158" y1="220" x2="255" y2="220" stroke="#5A5A5A" stroke-width="8" stroke-linecap="round"/>
<line x1="152" y1="236" x2="262" y2="236" stroke="#196ECF" stroke-width="8" stroke-linecap="round"/>
<line x1="88" y1="220" x2="105" y2="220" stroke="#196ECF" stroke-width="8" stroke-linecap="round"/>
<line x1="71" y1="236" x2="99" y2="236" stroke="#999999" stroke-width="8" stroke-linecap="round"/>
<line x1="88" y1="268" x2="240" y2="268" stroke="#999999" stroke-width="8" stroke-linecap="round"/>
<line x1="114" y1="300" x2="186" y2="300" stroke="#196ECF" stroke-width="8" stroke-linecap="round"/>
<line x1="168" y1="284" x2="183" y2="284" stroke="#999999" stroke-width="8" stroke-linecap="round"/>
<line x1="101" y1="284" x2="155" y2="284" stroke="#999999" stroke-width="8" stroke-linecap="round"/>
<line x1="118" y1="220" x2="147" y2="220" stroke="#196ECF" stroke-width="8" stroke-linecap="round"/>
<line x1="111" y1="236" x2="140" y2="236" stroke="#999999" stroke-width="8" stroke-linecap="round"/>
<line x1="155" y1="252" x2="193" y2="252" stroke="#196ECF" stroke-width="8" stroke-linecap="round"/>
<line x1="88" y1="252" x2="142" y2="252" stroke="#196ECF" stroke-width="8" stroke-linecap="round"/>
<rect x="20" y="46" width="110" height="19" rx="9.5" fill="white"/>
<path d="M413 592L413 306C413 303.239 415.239 301 418 301L592 301L592 592L413 592Z" fill="#D9E9FA"/>
<path d="M0 46H77.5C82.7467 46 87 50.2533 87 55.5V55.5C87 60.7467 82.7467 65 77.5 65H0V46Z" fill="#002677"/>
<path d="M349 505L349 448L425.761 448L448 477.314L425.761 505L349 505Z" fill="white"/>
<path fill-rule="evenodd" clip-rule="evenodd" d="M435.798 505H512.341L534.657 477.314L512.341 448H435.798L458.114 477.314L435.798 505Z" fill="#196ECF"/>
<path fill-rule="evenodd" clip-rule="evenodd" d="M592 448V505H521L543.316 477.314L521 448H592Z" fill="#002677"/>
<path d="M413 330L413 306C413 303.239 415.239 301 418 301L592 301L592 330L413 330Z" fill="#196ECF"/>
<circle cx="425" cy="316" r="5" fill="#002677"/>
<circle cx="439" cy="316" r="5" fill="white"/>
<rect x="450" y="309" width="142" height="14" fill="white"/>
<path d="M0 369H119C141.091 369 159 386.909 159 409V409C159 431.091 141.091 449 119 449H0V369Z" fill="#196ECF"/>
<path d="M47.6719 430.129L12.3398 414.766V406.258L47.6719 390.965V400.984L23.0273 410.406L47.6719 420.18V430.129ZM50.9414 436.879L63.7031 383.582H71.1211L58.2188 436.879H50.9414ZM74.4258 430.164V420.215L99.1055 410.512L74.4258 400.914V391.035L109.793 406.328V414.766L74.4258 430.164Z" fill="white"/>
<defs>
<linearGradient id="paint0_linear_71_3049" x1="114" y1="-65" x2="114" y2="290" gradientUnits="userSpaceOnUse">
<stop stop-color="#D9E9FA"/>
<stop offset="1" stop-color="#D9E9FA" stop-opacity="0"/>
</linearGradient>
</defs>
</svg>
