<svg width="592" height="592" viewBox="0 0 592 592" fill="none" xmlns="http://www.w3.org/2000/svg">
<rect width="592" height="592" fill="#002677"/>
<path d="M335 331C335 328.791 336.791 327 339 327H592V537H339C336.791 537 335 535.209 335 533V331Z" fill="url(#paint0_linear_82_3161)"/>
<path d="M77 389C74.2386 389 72 386.761 72 384L72 103C72 100.239 74.2386 98 77 98L447 98C449.761 98 452 100.239 452 103L452 384C452 386.761 449.761 389 447 389L77 389Z" fill="#D9E9FA"/>
<path d="M72 107L72 83C72 80.2386 74.2386 78 77 78L447 78C449.761 78 452 80.2386 452 83L452 107L72 107Z" fill="#196ECF"/>
<circle cx="86.5806" cy="94" r="6" fill="#002677"/>
<circle cx="103.742" cy="94" r="6" fill="white"/>
<rect x="120" y="86" width="317" height="14" fill="white"/>
<circle cx="452" cy="371" r="83" fill="white" fill-opacity="0.5" stroke="#196ECF" stroke-width="20"/>
<path d="M32 242C32 237.582 35.5817 234 40 234H108C112.418 234 116 237.582 116 242V270C116 274.418 112.418 278 108 278H40C35.5817 278 32 274.418 32 270V242Z" fill="white"/>
<path d="M47.17 261.662H44.58L41.696 264.714C41.514 264.91 41.444 264.98 40.912 265.624C40.926 264.756 40.926 264.728 40.926 264.448V261.662H38.896V271H40.926V267.99L42.102 266.814L44.93 271H47.506L43.502 265.358L47.17 261.662Z" fill="#196ECF"/>
<path d="M52.2741 268.9C51.9941 269.572 51.5741 269.852 50.8881 269.852C49.8941 269.852 49.3481 269.236 49.3061 268.102H54.1641V267.822C54.1641 265.554 52.8341 264.056 50.8181 264.056C48.8581 264.056 47.4161 265.568 47.4161 267.654C47.4161 269.768 48.8021 271.182 50.8741 271.182C52.4561 271.182 53.6881 270.286 54.0521 268.9H52.2741ZM49.3061 266.912C49.4041 265.974 49.9921 265.386 50.8181 265.386C51.6441 265.386 52.1621 265.932 52.2741 266.912H49.3061Z" fill="#196ECF"/>
<path d="M61.2809 264.238H59.3629L58.3129 267.472C58.1589 267.92 58.0749 268.256 57.8509 269.124C57.6549 268.298 57.5709 267.976 57.4309 267.556L56.3109 264.238H54.3089L56.7169 270.594C56.7449 270.692 56.7729 270.86 56.7729 271.014C56.7729 271.63 56.4649 271.868 55.7229 271.868H54.9669V273.394L55.7229 273.408L55.9049 273.422C56.6049 273.464 57.1649 273.338 57.5569 273.086C58.0609 272.736 58.2849 272.344 58.8029 270.972L61.2809 264.238Z" fill="#196ECF"/>
<path d="M98 296C98 291.582 101.582 288 106 288H134C138.418 288 142 291.582 142 296V324C142 328.418 138.418 332 134 332H106C101.582 332 98 328.418 98 324V296Z" fill="white"/>
<path fill-rule="evenodd" clip-rule="evenodd" d="M133 327V317H135V327H133ZM125 321V318L133 322L125 326V323H105V321H125Z" fill="#196ECF"/>
<path d="M104.45 305.014V306.526H105.89L105.206 310H106.862L107.546 306.526H109.508L108.806 310H110.462L111.146 306.526H112.874V305.014H111.452L111.902 302.818H113.612V301.306H112.19L112.874 297.976H111.218L110.552 301.306H108.59L109.256 297.976H107.6L106.934 301.306H105.206V302.818H106.628L106.196 305.014H104.45ZM107.852 305.014L108.284 302.818H110.246L109.796 305.014H107.852Z" fill="#196ECF"/>
<path d="M452 215H543C545.761 215 548 212.761 548 210V0" stroke="white"/>
<path d="M521 215L521 38C521 35.2386 518.761 33 516 33L306 33" stroke="white"/>
<path d="M0 550H124C126.761 550 129 547.761 129 545V389" stroke="white"/>
<path d="M452 257H569C571.761 257 574 259.239 574 262V483" stroke="white"/>
<path d="M592 483H224C221.239 483 219 480.761 219 478V389" stroke="white"/>
<line x1="160.5" y1="389" x2="160.5" y2="592" stroke="white"/>
<line x1="188.5" y1="389" x2="188.5" y2="502" stroke="white"/>
<line x1="492.5" y1="137" x2="492.5" y2="215" stroke="white"/>
<path d="M503.644 436.664L550.234 536.934C555.107 547.422 550.555 559.874 540.068 564.748C529.58 569.621 517.127 565.069 512.254 554.581L465.664 454.311L503.644 436.664Z" fill="#196ECF" stroke="#196ECF"/>
<circle opacity="0.5" cx="544.5" cy="92.5" r="37.5" fill="#C4C4C4"/>
<path fill-rule="evenodd" clip-rule="evenodd" d="M592 55.0033V129.997C591.834 129.999 591.667 130 591.5 130C570.789 130 554 113.211 554 92.5C554 71.7893 570.789 55 591.5 55C591.667 55 591.834 55.0011 592 55.0033Z" fill="white"/>
<path d="M0 211L4.17371e-07 176L144 176C146.761 176 149 178.239 149 181L149 206C149 208.761 146.761 211 144 211L0 211Z" fill="#196ECF"/>
<path d="M9 203.5H31L20 184.5L9 203.5ZM21 200.5H19V198.5H21V200.5ZM21 196.5H19V192.5H21V196.5Z" fill="white"/>
<line x1="2.98122e-09" y1="155.5" x2="72" y2="155.5" stroke="white"/>
<line x1="2.98122e-09" y1="139.5" x2="72" y2="139.5" stroke="white"/>
<line x1="2.98122e-09" y1="123.5" x2="72" y2="123.5" stroke="white"/>
<path d="M60.52 467.272C61.24 460.072 66.712 456.76 75.928 455.464V450.28C58.504 451 49.144 460.072 49.144 474.184C49.144 483.832 54.472 490.6 62.968 490.6C70.024 490.6 75.64 485.992 75.64 478.648C75.64 472.024 71.608 468.424 66.136 467.272H60.52ZM29.992 467.272C30.856 460.072 36.328 456.76 45.544 455.464V450.28C28.12 451 18.76 460.072 18.76 474.184C18.76 483.832 24.088 490.6 32.584 490.6C39.64 490.6 45.256 485.992 45.256 478.648C45.256 472.024 41.224 468.424 35.752 467.272H29.992Z" fill="white"/>
<path d="M127.67 474.328C126.95 481.528 121.478 484.696 112.262 485.992V491.32C129.686 490.456 139.046 481.528 139.046 467.272C139.046 457.624 133.718 451 125.222 451C118.166 451 112.55 455.464 112.55 462.952C112.55 469.576 116.582 473.032 122.054 474.328H127.67ZM158.054 474.328C157.334 481.528 151.862 484.696 142.646 485.992V491.32C160.07 490.456 169.43 481.528 169.43 467.272C169.43 457.624 164.102 451 155.606 451C148.55 451 142.934 455.464 142.934 462.952C142.934 469.576 146.966 473.032 152.438 474.328H158.054Z" fill="white"/>
<defs>
<linearGradient id="paint0_linear_82_3161" x1="463.5" y1="327" x2="463.5" y2="537" gradientUnits="userSpaceOnUse">
<stop stop-color="white" stop-opacity="0"/>
<stop offset="1" stop-color="white"/>
</linearGradient>
</defs>
</svg>
