<svg width="592" height="592" viewBox="0 0 592 592" fill="none" xmlns="http://www.w3.org/2000/svg">
<rect width="592" height="592" fill="#002677"/>
<path fill-rule="evenodd" clip-rule="evenodd" d="M103 401.846C101.895 401.846 101 402.742 101 403.846V408.299C94.6236 409.176 88.7302 411.554 83.6933 415.062L80.0541 411.448C79.2703 410.67 77.9996 410.67 77.2159 411.448L71.4 417.224C70.6162 418.002 70.6162 419.264 71.4 420.042L74.8659 423.484C71.1751 428.288 68.5682 433.956 67.4078 440.131H62C60.8954 440.131 60 441.026 60 442.131V450.285C60 451.389 60.8954 452.285 62 452.285H67.0296C67.9093 459.402 70.6957 465.935 74.8658 471.362L71.4 474.804C70.6162 475.582 70.6162 476.844 71.4 477.622L77.2158 483.398C77.9996 484.176 79.2703 484.176 80.0541 483.398L83.6933 479.784C88.7301 483.292 94.6235 485.67 101 486.548V491C101 492.105 101.895 493 103 493H111.239C112.343 493 113.239 492.105 113.239 491V486.36C119.694 485.267 125.619 482.63 130.614 478.845L133.468 481.679C134.252 482.457 135.522 482.457 136.306 481.679L142.122 475.904C142.906 475.125 142.906 473.863 142.122 473.085L139.095 470.079C142.74 464.917 145.174 458.85 145.985 452.285H149.791C150.896 452.285 151.791 451.389 151.791 450.285V442.131C151.791 441.026 150.896 440.131 149.791 440.131H145.607C144.548 434.498 142.286 429.286 139.095 424.767L142.122 421.761C142.906 420.983 142.906 419.721 142.122 418.942L136.306 413.167C135.522 412.389 134.252 412.389 133.468 413.167L130.614 416.001C125.618 412.216 119.694 409.579 113.239 408.486V403.846C113.239 402.742 112.343 401.846 111.239 401.846H103ZM105.896 471.123C119.414 471.123 130.373 460.512 130.373 447.423C130.373 434.334 119.414 423.723 105.896 423.723C92.3769 423.723 81.4179 434.334 81.4179 447.423C81.4179 460.512 92.3769 471.123 105.896 471.123Z" fill="#E5F8FB"/>
<ellipse cx="105.896" cy="446.815" rx="8.56716" ry="8.50769" fill="#E5F8FB"/>
<path fill-rule="evenodd" clip-rule="evenodd" d="M166.662 358.092C166.109 358.092 165.662 358.54 165.662 359.092V362.394C161.411 362.979 157.482 364.564 154.124 366.903L151.461 364.259C151.069 363.87 150.434 363.87 150.042 364.259L145.692 368.579C145.3 368.968 145.3 369.599 145.692 369.988L148.239 372.518C145.778 375.72 144.041 379.499 143.267 383.615H139.328C138.776 383.615 138.328 384.063 138.328 384.615V390.718C138.328 391.27 138.776 391.718 139.328 391.718H143.015C143.601 396.463 145.459 400.818 148.239 404.436L145.692 406.966C145.3 407.355 145.3 407.986 145.692 408.375L150.042 412.695C150.434 413.084 151.069 413.084 151.461 412.695L154.124 410.051C157.482 412.39 161.411 413.975 165.662 414.56V417.862C165.662 418.414 166.109 418.862 166.662 418.862H172.821C173.373 418.862 173.821 418.414 173.821 417.862V414.435C178.124 413.706 182.074 411.948 185.404 409.425L187.543 411.549C187.935 411.938 188.571 411.938 188.963 411.549L193.313 407.229C193.705 406.84 193.705 406.209 193.313 405.82L191.058 403.581C193.488 400.14 195.111 396.095 195.652 391.718H198.522C199.075 391.718 199.522 391.27 199.522 390.718V384.615C199.522 384.063 199.075 383.615 198.522 383.615H195.4C194.694 379.86 193.186 376.385 191.058 373.373L193.313 371.134C193.705 370.745 193.705 370.114 193.313 369.725L188.963 365.405C188.571 365.015 187.935 365.015 187.543 365.405L185.404 367.529C182.074 365.006 178.124 363.248 173.821 362.519V359.092C173.821 358.54 173.373 358.092 172.821 358.092H166.662ZM168.925 404.277C177.938 404.277 185.244 397.203 185.244 388.477C185.244 379.751 177.938 372.677 168.925 372.677C159.913 372.677 152.607 379.751 152.607 388.477C152.607 397.203 159.913 404.277 168.925 404.277Z" fill="#E5F8FB"/>
<ellipse cx="168.925" cy="388.072" rx="5.71144" ry="5.67179" fill="#E5F8FB"/>
<path fill-rule="evenodd" clip-rule="evenodd" d="M208.07 335C207.517 335 207.07 335.448 207.07 336V337.151C204.944 337.443 202.98 338.236 201.301 339.405L200.324 338.436C199.932 338.046 199.297 338.046 198.905 338.436L197.439 339.891C197.048 340.28 197.048 340.911 197.439 341.3L198.358 342.213C197.128 343.814 196.259 345.703 195.872 347.762H194.403C193.851 347.762 193.403 348.209 193.403 348.762V350.813C193.403 351.365 193.851 351.813 194.403 351.813H195.746C196.039 354.185 196.968 356.363 198.358 358.172L197.439 359.084C197.048 359.474 197.048 360.105 197.439 360.494L198.905 361.949C199.297 362.338 199.932 362.338 200.324 361.949L201.301 360.979C202.98 362.149 204.944 362.941 207.07 363.234V364.385C207.07 364.937 207.517 365.385 208.07 365.385H210.149C210.702 365.385 211.149 364.937 211.149 364.385V363.171C213.301 362.807 215.276 361.928 216.941 360.666L217.656 361.376C218.048 361.765 218.683 361.765 219.075 361.376L220.54 359.921C220.932 359.532 220.932 358.901 220.54 358.511L219.768 357.744C220.983 356.024 221.794 354.001 222.065 351.813H223C223.552 351.813 224 351.365 224 350.813V348.762C224 348.209 223.552 347.762 223 347.762H221.939C221.586 345.884 220.832 344.146 219.768 342.64L220.54 341.873C220.932 341.484 220.932 340.853 220.54 340.464L219.075 339.009C218.683 338.619 218.048 338.619 217.656 339.009L216.941 339.718C215.276 338.457 213.301 337.578 211.149 337.213V336C211.149 335.448 210.702 335 210.149 335H208.07ZM208.701 358.092C213.208 358.092 216.861 354.555 216.861 350.192C216.861 345.829 213.208 342.292 208.701 342.292C204.195 342.292 200.542 345.829 200.542 350.192C200.542 354.555 204.195 358.092 208.701 358.092Z" fill="#E5F8FB"/>
<ellipse cx="208.701" cy="349.99" rx="2.85572" ry="2.8359" fill="#E5F8FB"/>
<line x1="0.5" x2="0.5" y2="382" stroke="white"/>
<line x1="5.96244e-09" y1="353.5" x2="572.174" y2="353.5" stroke="white"/>
<line x1="301.804" x2="301.804" y2="382" stroke="white"/>
<line x1="5.96244e-09" y1="56.5" x2="572.174" y2="56.5" stroke="white"/>
<line x1="30.9348" x2="30.9348" y2="382" stroke="white"/>
<line x1="5.96244e-09" y1="324.5" x2="572.174" y2="324.5" stroke="white"/>
<line x1="331.225" x2="331.225" y2="382" stroke="white"/>
<line x1="5.96244e-09" y1="27.5" x2="572.174" y2="27.5" stroke="white"/>
<line x1="60.3551" x2="60.3551" y2="382" stroke="white"/>
<line x1="5.96244e-09" y1="294.5" x2="572.174" y2="294.5" stroke="white"/>
<line x1="361.659" x2="361.659" y2="382" stroke="white"/>
<line x1="90.7899" x2="90.7899" y2="382" stroke="white"/>
<line x1="5.96244e-09" y1="264.5" x2="572.174" y2="264.5" stroke="white"/>
<line x1="392.094" x2="392.094" y2="382" stroke="white"/>
<line x1="121.225" x2="121.225" y2="382" stroke="white"/>
<line x1="5.96244e-09" y1="235.5" x2="572.174" y2="235.5" stroke="white"/>
<line x1="421.514" x2="421.514" y2="382" stroke="white"/>
<line x1="150.645" x2="150.645" y2="382" stroke="white"/>
<line x1="5.96244e-09" y1="205.5" x2="572.174" y2="205.5" stroke="white"/>
<line x1="451.949" x2="451.949" y2="382" stroke="white"/>
<line x1="181.08" x2="181.08" y2="382" stroke="white"/>
<line x1="5.96244e-09" y1="175.5" x2="572.174" y2="175.5" stroke="white"/>
<line x1="482.384" x2="482.384" y2="382" stroke="white"/>
<line x1="211.514" x2="211.514" y2="382" stroke="white"/>
<line x1="5.96244e-09" y1="145.5" x2="572.174" y2="145.5" stroke="white"/>
<line x1="511.804" x2="511.804" y2="382" stroke="white"/>
<line x1="240.935" x2="240.935" y2="382" stroke="white"/>
<line x1="5.96244e-09" y1="116.5" x2="572.174" y2="116.5" stroke="white"/>
<line x1="542.239" x2="542.239" y2="382" stroke="white"/>
<line x1="271.37" x2="271.37" y2="382" stroke="white"/>
<line x1="5.96244e-09" y1="86.5" x2="572.174" y2="86.5" stroke="white"/>
<line x1="572.674" x2="572.674" y2="382" stroke="white"/>
<rect x="86" y="59" width="291" height="266" rx="4" fill="url(#paint0_linear_473_5868)"/>
<rect x="271" y="228" width="354" height="238" fill="white"/>
<g filter="url(#filter0_d_473_5868)">
<rect x="344.632" y="427.92" width="159.46" height="206.736" rx="5" transform="rotate(-90 344.632 427.92)" fill="white"/>
</g>
<path d="M344.632 301.78L344.632 273.46C344.632 270.699 346.871 268.46 349.632 268.46L546.368 268.46C549.129 268.46 551.368 270.699 551.368 273.46L551.368 301.78L344.632 301.78Z" fill="#003C71"/>
<line x1="355.96" y1="320.32" x2="538.624" y2="320.32" stroke="#003C71"/>
<line x1="355.96" y1="341.74" x2="538.624" y2="341.74" stroke="#003C71"/>
<line x1="355.96" y1="363.16" x2="440.92" y2="363.16" stroke="#003C71"/>
<line x1="453.664" y1="363.16" x2="538.624" y2="363.16" stroke="#003C71"/>
<line x1="355.96" y1="384.58" x2="440.92" y2="384.58" stroke="#003C71"/>
<line x1="453.664" y1="384.58" x2="538.624" y2="384.58" stroke="#003C71"/>
<rect x="507.472" y="401.74" width="31.152" height="16.66" rx="8.33" fill="#003C71"/>
<rect x="472.572" y="402.24" width="30.152" height="15.66" rx="7.83" stroke="#003C71"/>
<path d="M566.898 410.685C566.898 443.198 540.852 469.37 508.949 469.37C477.046 469.37 451 443.198 451 410.685C451 378.172 477.046 352 508.949 352C540.852 352 566.898 378.172 566.898 410.685Z" fill="white" fill-opacity="0.5" stroke="#196ECF" stroke-width="20"/>
<path d="M548.077 461.573L582.108 535.607C585.613 543.232 582.297 552.306 574.701 555.873C567.105 559.441 558.106 556.152 554.601 548.527L520.57 474.493L548.077 461.573Z" fill="#196ECF" stroke="#196ECF"/>
<g opacity="0.75">
<ellipse cx="588.394" cy="126.467" rx="37.3937" ry="39.4671" fill="#EDF3FB"/>
<path d="M720 87L644.241 87L720 165.934L720 87Z" fill="#196ECF"/>
<path d="M644.241 165.934L720 165.934L644.241 87L644.241 165.934Z" fill="#D9E9FA" fill-opacity="0.5"/>
<line x1="644.241" y1="188.734" x2="720" y2="188.734" stroke="#D9E9FA" stroke-width="5"/>
<line x1="644.241" y1="203.913" x2="720" y2="203.913" stroke="#D9E9FA" stroke-width="5"/>
<line x1="644.241" y1="232.249" x2="720" y2="232.249" stroke="#D9E9FA" stroke-width="5"/>
<line x1="644.241" y1="247.428" x2="720" y2="247.428" stroke="#D9E9FA" stroke-width="5"/>
<line x1="644.241" y1="218.081" x2="720" y2="218.081" stroke="#D9E9FA" stroke-width="5"/>
<rect x="551" y="178.078" width="74.7874" height="77.9222" fill="#C4C4C4"/>
</g>
<defs>
<filter id="filter0_d_473_5868" x="320.632" y="256.46" width="254.736" height="207.46" filterUnits="userSpaceOnUse" color-interpolation-filters="sRGB">
<feFlood flood-opacity="0" result="BackgroundImageFix"/>
<feColorMatrix in="SourceAlpha" type="matrix" values="0 0 0 0 0 0 0 0 0 0 0 0 0 0 0 0 0 0 127 0" result="hardAlpha"/>
<feOffset dy="12"/>
<feGaussianBlur stdDeviation="12"/>
<feColorMatrix type="matrix" values="0 0 0 0 0 0 0 0 0 0 0 0 0 0 0 0 0 0 0.15 0"/>
<feBlend mode="normal" in2="BackgroundImageFix" result="effect1_dropShadow_473_5868"/>
<feBlend mode="normal" in="SourceGraphic" in2="effect1_dropShadow_473_5868" result="shape"/>
</filter>
<linearGradient id="paint0_linear_473_5868" x1="231.5" y1="59" x2="231.5" y2="325" gradientUnits="userSpaceOnUse">
<stop stop-color="#D9E9FA"/>
<stop offset="1" stop-color="#D9E9FA" stop-opacity="0"/>
</linearGradient>
</defs>
</svg>
