<svg width="592" height="592" viewBox="0 0 592 592" fill="none" xmlns="http://www.w3.org/2000/svg">
<rect width="592" height="592" fill="#002677"/>
<path d="M0 295H240C242.209 295 244 296.791 244 299V557C244 559.209 242.209 561 240 561H4C1.79086 561 0 559.209 0 557V295Z" fill="url(#paint0_linear_82_3113)"/>
<line x1="48.5" y1="1" x2="48.5" y2="383" stroke="white"/>
<line x1="48" y1="354.5" x2="592" y2="354.5" stroke="white"/>
<line x1="345.5" y1="1" x2="345.5" y2="383" stroke="white"/>
<line x1="48" y1="57.5" x2="592" y2="57.5" stroke="white"/>
<line x1="78.5" y1="1" x2="78.5" y2="383" stroke="white"/>
<line x1="48" y1="325.5" x2="592" y2="325.5" stroke="white"/>
<line x1="374.5" y1="1" x2="374.5" y2="383" stroke="white"/>
<line x1="48" y1="28.5" x2="592" y2="28.5" stroke="white"/>
<line x1="107.5" y1="1" x2="107.5" y2="383" stroke="white"/>
<line x1="48" y1="295.5" x2="592" y2="295.5" stroke="white"/>
<line x1="404.5" y1="1" x2="404.5" y2="383" stroke="white"/>
<line x1="137.5" y1="1" x2="137.5" y2="383" stroke="white"/>
<line x1="48" y1="265.5" x2="592" y2="265.5" stroke="white"/>
<line x1="434.5" y1="1" x2="434.5" y2="383" stroke="white"/>
<line x1="167.5" y1="1" x2="167.5" y2="383" stroke="white"/>
<line x1="48" y1="236.5" x2="592" y2="236.5" stroke="white"/>
<line x1="463.5" y1="1" x2="463.5" y2="383" stroke="white"/>
<line x1="196.5" y1="1" x2="196.5" y2="383" stroke="white"/>
<line x1="48" y1="206.5" x2="592" y2="206.5" stroke="white"/>
<line x1="493.5" y1="1" x2="493.5" y2="383" stroke="white"/>
<line x1="226.5" y1="1" x2="226.5" y2="383" stroke="white"/>
<line x1="48" y1="176.5" x2="592" y2="176.5" stroke="white"/>
<line x1="523.5" y1="1" x2="523.5" y2="383" stroke="white"/>
<line x1="256.5" y1="1" x2="256.5" y2="383" stroke="white"/>
<line x1="48" y1="146.5" x2="592" y2="146.5" stroke="white"/>
<line x1="552.5" y1="1" x2="552.5" y2="383" stroke="white"/>
<line x1="285.5" y1="1" x2="285.5" y2="383" stroke="white"/>
<line x1="48" y1="117.5" x2="592" y2="117.5" stroke="white"/>
<line x1="582.5" y1="1" x2="582.5" y2="383" stroke="white"/>
<line x1="315.5" y1="1" x2="315.5" y2="383" stroke="white"/>
<line x1="48" y1="87.5" x2="592" y2="87.5" stroke="white"/>
<path d="M147.408 159.432C148.128 161.592 148.704 163.464 148.704 165.048C148.704 169.656 144.816 171.24 136.896 171.528V177H184.272V171.528C180.24 170.808 177.216 169.944 175.776 166.2L139.344 75.336H113.28L117.888 86.712L87.072 166.2C85.632 170.088 82.608 170.808 78.72 171.528V177H108.96V171.528C100.752 171.096 96.864 169.512 96.864 164.904C96.864 163.32 97.44 161.448 98.16 159.432L103.776 144.6H141.504L147.408 159.432ZM122.208 96.072L138.768 137.688H106.368L122.208 96.072Z" fill="white"/>
<path d="M228.712 165.624C221.224 165.624 218.056 160.296 218.056 152.808C218.056 144.6 221.656 141.72 227.272 139.416L237.496 135.384V162.168C234.328 164.328 232.024 165.624 228.712 165.624ZM260.392 123C260.392 105.144 249.304 98.664 230.152 98.664C213.448 98.664 200.488 104.712 200.488 117.24C200.488 122.136 203.224 125.448 207.256 126.744L221.08 124.872C220.216 121.56 219.784 118.536 219.784 115.512C219.784 108.6 222.376 103.704 228.568 103.704C235.192 103.704 237.496 108.888 237.496 116.376V129.768L215.176 137.688C204.664 141.576 195.88 146.616 195.88 159.144C195.88 171.096 203.944 178.152 215.896 178.152C226.264 178.152 233.464 172.104 237.928 166.056C239.8 173.832 245.272 178.44 253.336 178.44C260.824 178.44 266.584 175.56 270.904 170.664L270.04 167.208C268.744 167.784 266.872 168.36 264.712 168.36C261.112 168.36 260.392 165.336 260.392 161.16V123Z" fill="white"/>
<path fill-rule="evenodd" clip-rule="evenodd" d="M592 196.732V401.268C543.635 392.34 507 349.948 507 299C507 248.052 543.635 205.66 592 196.732Z" fill="#196ECF"/>
<path d="M164.12 205.97V266H193.1C198.41 266 202.1 265.19 205.25 263.48C210.65 260.33 213.8 254.75 213.8 248.27C213.8 240.62 210.11 235.85 202.55 233.69C207.86 231.53 211.1 226.76 211.1 221.09C211.1 215.51 208.04 210.56 203.18 208.04C200.12 206.51 196.52 205.97 189.95 205.97H164.12ZM174.65 214.52H188.33C192.02 214.52 194.72 214.79 195.89 215.24C198.86 216.32 200.57 219.02 200.57 222.71C200.57 226.31 198.68 229.19 195.62 230.18C194.09 230.72 191.48 230.99 187.97 230.99H174.65V214.52ZM174.65 238.55H188.42C193.82 238.55 195.98 238.73 197.87 239.45C201.2 240.71 203.27 243.86 203.27 248C203.27 251.42 201.83 254.3 199.22 255.83C197.24 257 194.63 257.45 189.41 257.45H174.65V238.55Z" fill="white"/>
<path d="M235.85 205.97H226.22V266H235.22V260.06C238.19 264.83 242.96 267.17 249.53 267.17C261.41 267.17 269.33 257.9 269.33 243.95C269.33 230.36 261.68 221.36 250.07 221.36C243.95 221.36 239.27 223.61 235.85 228.2V205.97ZM247.82 229.01C254.93 229.01 259.61 234.95 259.61 244.04C259.61 253.4 254.84 259.52 247.73 259.52C240.26 259.52 235.58 253.67 235.58 244.22C235.58 234.68 240.17 229.01 247.82 229.01Z" fill="white"/>
<rect x="308" y="343" width="284" height="154" fill="#D9E9FA"/>
<path d="M393 472C390.239 472 388 469.761 388 467L388 374C388 371.239 390.239 369 393 369L592 369L592 472L393 472Z" fill="white"/>
<path d="M388 391L388 374C388 371.239 390.239 369 393 369L592 369L592 391L388 391Z" fill="#002677"/>
<line x1="400" y1="402.5" x2="592" y2="402.5" stroke="#002677"/>
<line x1="400" y1="416.5" x2="592" y2="416.5" stroke="#002677"/>
<line x1="400.4" y1="430.28" x2="492.8" y2="430.28" stroke="#002677"/>
<line x1="503" y1="430.5" x2="592" y2="430.5" stroke="#002677"/>
<line x1="400.4" y1="444.14" x2="492.8" y2="444.14" stroke="#002677"/>
<line x1="503" y1="444.5" x2="592" y2="444.5" stroke="#002677"/>
<path d="M565 460.5C565 457.462 567.462 455 570.5 455H592V466H570.5C567.462 466 565 463.538 565 460.5V460.5Z" fill="#002677"/>
<rect x="527.18" y="455.92" width="32.88" height="9.78" rx="4.89" stroke="#002677"/>
<path d="M294.939 529.939C294.354 530.525 294.354 531.475 294.939 532.061L304.485 541.607C305.071 542.192 306.021 542.192 306.607 541.607C307.192 541.021 307.192 540.071 306.607 539.485L298.121 531L306.607 522.515C307.192 521.929 307.192 520.979 306.607 520.393C306.021 519.808 305.071 519.808 304.485 520.393L294.939 529.939ZM549.061 532.061C549.646 531.475 549.646 530.525 549.061 529.939L539.515 520.393C538.929 519.808 537.979 519.808 537.393 520.393C536.808 520.979 536.808 521.929 537.393 522.515L545.879 531L537.393 539.485C536.808 540.071 536.808 541.021 537.393 541.607C537.979 542.192 538.929 542.192 539.515 541.607L549.061 532.061ZM296 532.5H548V529.5H296V532.5Z" fill="#196ECF"/>
<path opacity="0.5" fill-rule="evenodd" clip-rule="evenodd" d="M592 118.083V271.917C573.523 288.742 548.959 299 522 299C464.562 299 418 252.438 418 195C418 137.562 464.562 91 522 91C548.959 91 573.523 101.258 592 118.083Z" fill="#D9E9FA"/>
<path d="M273.939 508.061C274.525 508.646 275.475 508.646 276.061 508.061L285.607 498.515C286.192 497.929 286.192 496.979 285.607 496.393C285.021 495.808 284.071 495.808 283.485 496.393L275 504.879L266.515 496.393C265.929 495.808 264.979 495.808 264.393 496.393C263.808 496.979 263.808 497.929 264.393 498.515L273.939 508.061ZM276.061 413.939C275.475 413.354 274.525 413.354 273.939 413.939L264.393 423.485C263.808 424.071 263.808 425.021 264.393 425.607C264.979 426.192 265.929 426.192 266.515 425.607L275 417.121L283.485 425.607C284.071 426.192 285.021 426.192 285.607 425.607C286.192 425.021 286.192 424.071 285.607 423.485L276.061 413.939ZM276.5 507L276.5 415L273.5 415L273.5 507L276.5 507Z" fill="#196ECF"/>
<defs>
<linearGradient id="paint0_linear_82_3113" x1="122" y1="295" x2="122" y2="561" gradientUnits="userSpaceOnUse">
<stop stop-color="#E9E9E9"/>
<stop offset="1" stop-color="#C4C4C4" stop-opacity="0"/>
</linearGradient>
</defs>
</svg>
