<svg width="1485" height="779" viewBox="0 0 1485 779" fill="none" xmlns="http://www.w3.org/2000/svg">
<rect x="883" y="235" width="601.836" height="451" rx="5" fill="#D9E9FA"/>
<path d="M883 240C883 237.239 885.239 235 888 235H1479.84C1482.6 235 1484.84 237.239 1484.84 240V274.217H883V240Z" fill="#196ECF"/>
<rect x="958.418" y="244.05" width="505.301" height="21.1171" rx="5" fill="white"/>
<rect x="1009.7" y="312.308" width="212.298" height="212.298" rx="5" fill="white"/>
<rect x="1010.2" y="312.808" width="211.298" height="211.298" rx="4.5" stroke="#002677" stroke-opacity="0.26"/>
<ellipse cx="1142.19" cy="392.916" rx="44.6942" ry="45.4923" fill="#196ECF"/>
<path d="M1044.82 489.488H1148.57L1044.82 385.734V489.488Z" fill="#002677"/>
<path d="M1148.57 385.733L1044.82 385.733L1148.57 489.488L1148.57 385.733Z" fill="#D9E9FA" fill-opacity="0.5"/>
<rect x="1009.7" y="550.248" width="360.498" height="12.0669" rx="6.03344" fill="#002677" fill-opacity="0.26"/>
<rect x="1009.7" y="622.649" width="304.689" height="12.0669" rx="6.03344" fill="#002677" fill-opacity="0.26"/>
<rect x="1009.7" y="574.381" width="81.4515" height="12.0669" rx="6.03344" fill="#002677" fill-opacity="0.26"/>
<rect x="1097.19" y="574.381" width="161.395" height="12.0669" rx="6.03344" fill="#002677" fill-opacity="0.26"/>
<rect x="1009.7" y="598.515" width="122.177" height="12.0669" rx="6.03344" fill="#002677" fill-opacity="0.26"/>
<rect x="1139.42" y="598.515" width="125.194" height="12.0669" rx="6.03344" fill="#002677" fill-opacity="0.26"/>
<rect x="1267.63" y="574.381" width="63.3512" height="12.0669" rx="6.03344" fill="#002677" fill-opacity="0.26"/>
<rect x="1321.93" y="622.649" width="30.1672" height="12.0669" rx="6.03344" fill="#002677" fill-opacity="0.26"/>
<rect x="1335.51" y="574.381" width="31.6756" height="12.0669" rx="6.03344" fill="#002677" fill-opacity="0.26"/>
<rect x="1358.13" y="622.649" width="31.6756" height="12.0669" rx="6.03344" fill="#002677" fill-opacity="0.26"/>
<rect x="1272.16" y="598.515" width="161.395" height="12.0669" rx="6.03344" fill="#002677" fill-opacity="0.26"/>
<line x1="1256.54" y1="363.744" x2="1423.53" y2="363.744" stroke="#002677" stroke-width="11" stroke-linecap="round"/>
<line x1="5.5" y1="-5.5" x2="128.041" y2="-5.5" transform="matrix(0.999937 -0.0112204 0.00401412 0.999992 1251.04 443.153)" stroke="#196ECF" stroke-width="11" stroke-linecap="round"/>
<line x1="1271.62" y1="387.878" x2="1343.58" y2="387.878" stroke="#002677" stroke-width="11" stroke-linecap="round"/>
<line x1="1344.02" y1="412.012" x2="1366.21" y2="412.012" stroke="#002677" stroke-width="11" stroke-linecap="round"/>
<line x1="1283.69" y1="412.012" x2="1326.99" y2="412.012" stroke="white" stroke-width="11" stroke-linecap="round"/>
<line x1="1357.6" y1="387.878" x2="1400.9" y2="387.878" stroke="#196ECF" stroke-width="11" stroke-linecap="round"/>
<line x1="1380.23" y1="412.012" x2="1393.36" y2="412.012" stroke="white" stroke-width="11" stroke-linecap="round"/>
<line x1="1431.51" y1="436.146" x2="1444.64" y2="436.146" stroke="white" stroke-width="11" stroke-linecap="round"/>
<line x1="1434.53" y1="461.787" x2="1447.66" y2="461.787" stroke="#002677" stroke-width="11" stroke-linecap="round"/>
<line x1="1334.98" y1="461.787" x2="1417.49" y2="461.787" stroke="white" stroke-width="11" stroke-linecap="round"/>
<line x1="1328.94" y1="485.921" x2="1423.53" y2="485.921" stroke="#196ECF" stroke-width="11" stroke-linecap="round"/>
<line x1="1271.62" y1="461.787" x2="1283.25" y2="461.787" stroke="#196ECF" stroke-width="11" stroke-linecap="round"/>
<line x1="1256.54" y1="485.921" x2="1277.22" y2="485.921" stroke="#002677" stroke-width="11" stroke-linecap="round"/>
<line x1="1298.77" y1="461.787" x2="1320.96" y2="461.787" stroke="#196ECF" stroke-width="11" stroke-linecap="round"/>
<line x1="1393.8" y1="436.146" x2="1415.99" y2="436.146" stroke="#196ECF" stroke-width="11" stroke-linecap="round"/>
<line x1="1410.39" y1="412.012" x2="1432.58" y2="412.012" stroke="#196ECF" stroke-width="11" stroke-linecap="round"/>
<line x1="1292.74" y1="485.921" x2="1314.92" y2="485.921" stroke="#002677" stroke-width="11" stroke-linecap="round"/>
<circle cx="902.609" cy="254.608" r="10.5585" fill="#002677"/>
<circle cx="935.793" cy="254.608" r="10.5585" fill="white"/>
<path d="M883 274.217H958.418V686H888C885.239 686 883 683.761 883 681V274.217Z" fill="#002677" fill-opacity="0.26"/>
<path d="M1025.56 123.988V148H1035.35C1039.2 148 1041.47 147.244 1043.49 145.228C1045.76 142.996 1046.87 139.828 1046.87 135.688C1046.87 131.908 1045.61 128.704 1043.27 126.58C1041.29 124.78 1038.84 123.988 1035.24 123.988H1025.56ZM1030.78 128.416H1034.63C1039.2 128.416 1041.58 130.972 1041.58 135.868C1041.58 138.496 1040.93 140.584 1039.67 141.952C1038.59 143.14 1037.3 143.572 1034.81 143.572H1030.78V128.416ZM1058.51 130.144C1052.97 130.144 1049.33 133.78 1049.33 139.324C1049.33 144.796 1052.93 148.468 1058.37 148.468C1063.77 148.468 1067.33 144.832 1067.33 139.288C1067.33 133.816 1063.77 130.144 1058.51 130.144ZM1058.37 133.672C1060.96 133.672 1062.54 135.796 1062.54 139.288C1062.54 142.852 1061 144.94 1058.37 144.94C1055.7 144.94 1054.12 142.852 1054.12 139.324C1054.12 135.76 1055.67 133.672 1058.37 133.672ZM1082.04 141.34C1081.68 143.644 1080.38 144.868 1078.33 144.868C1075.74 144.868 1074.26 142.852 1074.26 139.36C1074.26 135.796 1075.81 133.744 1078.44 133.744C1080.28 133.744 1081.54 134.824 1081.9 136.696H1086.58C1086.18 132.664 1083.05 130.144 1078.4 130.144C1073 130.144 1069.48 133.816 1069.48 139.468C1069.48 144.904 1072.97 148.468 1078.33 148.468C1082.98 148.468 1086.07 145.84 1086.68 141.34H1082.04ZM1105.77 130.612H1101.02V139.252C1101.02 141.052 1100.88 141.952 1100.52 142.636C1099.87 143.896 1098.72 144.58 1097.24 144.58C1096.09 144.58 1095.19 144.184 1094.69 143.428C1094.29 142.816 1094.22 142.24 1094.22 140.224V130.612H1089.47V141.628C1089.47 143.968 1089.79 145.336 1090.62 146.38C1091.7 147.748 1093.43 148.468 1095.48 148.468C1098 148.468 1099.83 147.532 1101.24 145.552V148H1105.77V130.612ZM1114.54 130.612H1110V148H1114.75V138.568C1114.75 137.308 1114.9 136.444 1115.15 135.868C1115.72 134.716 1116.88 134.032 1118.21 134.032C1119.25 134.032 1120.12 134.464 1120.51 135.184C1120.76 135.652 1120.87 136.3 1120.87 137.416V148H1125.62V138.568C1125.62 137.056 1125.73 136.372 1125.98 135.76C1126.52 134.68 1127.64 134.032 1128.97 134.032C1130.09 134.032 1130.99 134.5 1131.42 135.256C1131.67 135.724 1131.78 136.444 1131.78 137.632V148H1136.53V136.3C1136.53 132.376 1134.41 130.144 1130.66 130.144C1128.22 130.144 1126.42 131.044 1124.94 133.024C1124 131.08 1122.42 130.144 1120.08 130.144C1117.67 130.144 1116.01 131.008 1114.54 132.988V130.612ZM1152.07 142.6C1151.35 144.328 1150.27 145.048 1148.51 145.048C1145.95 145.048 1144.55 143.464 1144.44 140.548H1156.93V139.828C1156.93 133.996 1153.51 130.144 1148.33 130.144C1143.29 130.144 1139.58 134.032 1139.58 139.396C1139.58 144.832 1143.14 148.468 1148.47 148.468C1152.54 148.468 1155.71 146.164 1156.64 142.6H1152.07ZM1144.44 137.488C1144.69 135.076 1146.2 133.564 1148.33 133.564C1150.45 133.564 1151.78 134.968 1152.07 137.488H1144.44ZM1164.56 130.612H1160.03V148H1164.78V139C1164.78 137.488 1164.92 136.66 1165.25 135.94C1165.82 134.752 1167.08 134.032 1168.56 134.032C1169.86 134.032 1170.9 134.608 1171.26 135.544C1171.48 136.12 1171.55 136.768 1171.55 138.028V148H1176.3V137.056C1176.3 134.788 1176.05 133.636 1175.36 132.52C1174.43 131.044 1172.59 130.144 1170.36 130.144C1167.84 130.144 1166.08 131.008 1164.56 133.024V130.612ZM1189.2 130.612H1185.67V125.356H1180.92V130.612H1178.01V133.816H1180.92V141.844C1180.92 144.904 1181.07 145.696 1181.68 146.596C1182.47 147.784 1183.8 148.252 1186.29 148.252C1187.26 148.252 1188.01 148.216 1189.2 148.072V144.436C1188.63 144.508 1188.19 144.544 1187.76 144.544C1185.96 144.544 1185.67 144.184 1185.67 142.024V133.816H1189.2V130.612ZM1208.76 144.832H1208.61C1207.6 144.832 1207.42 144.652 1207.42 143.464V135.04C1207.42 131.836 1204.83 130.144 1199.94 130.144C1197.13 130.144 1194.97 130.72 1193.56 131.908C1192.27 132.988 1191.76 133.996 1191.58 135.94H1196.37C1196.59 134.032 1197.49 133.348 1199.65 133.348C1201.66 133.348 1202.64 134.068 1202.64 135.544C1202.64 137.02 1201.95 137.38 1198.17 137.812C1195.29 138.136 1193.89 138.532 1192.74 139.396C1191.62 140.224 1191.04 141.556 1191.04 143.248C1191.04 146.524 1193.28 148.468 1197.06 148.468C1199.65 148.468 1201.48 147.748 1203.03 146.092C1203.46 147.676 1204.54 148.36 1206.67 148.36C1207.53 148.36 1208.07 148.252 1208.76 147.928V144.832ZM1202.64 141.304C1202.64 143.896 1201.3 145.264 1198.78 145.264C1196.8 145.264 1195.83 144.508 1195.83 143.032C1195.83 141.34 1196.8 140.692 1199.72 140.332C1201.34 140.116 1202.17 139.864 1202.64 139.468V141.304ZM1220.18 130.612H1216.65V125.356H1211.9V130.612H1208.98V133.816H1211.9V141.844C1211.9 144.904 1212.04 145.696 1212.65 146.596C1213.44 147.784 1214.78 148.252 1217.26 148.252C1218.23 148.252 1218.99 148.216 1220.18 148.072V144.436C1219.6 144.508 1219.17 144.544 1218.74 144.544C1216.94 144.544 1216.65 144.184 1216.65 142.024V133.816H1220.18V130.612ZM1225.37 123.484C1223.86 123.484 1222.63 124.672 1222.63 126.184C1222.63 127.66 1223.86 128.884 1225.33 128.884C1226.81 128.884 1228.03 127.66 1228.03 126.184C1228.03 124.708 1226.81 123.484 1225.37 123.484ZM1227.67 130.612H1222.92V148H1227.67V130.612ZM1240.06 130.144C1234.51 130.144 1230.88 133.78 1230.88 139.324C1230.88 144.796 1234.48 148.468 1239.91 148.468C1245.31 148.468 1248.88 144.832 1248.88 139.288C1248.88 133.816 1245.31 130.144 1240.06 130.144ZM1239.91 133.672C1242.51 133.672 1244.09 135.796 1244.09 139.288C1244.09 142.852 1242.54 144.94 1239.91 144.94C1237.25 144.94 1235.67 142.852 1235.67 139.324C1235.67 135.76 1237.21 133.672 1239.91 133.672ZM1256.57 130.612H1252.03V148H1256.78V139C1256.78 137.488 1256.93 136.66 1257.25 135.94C1257.83 134.752 1259.09 134.032 1260.56 134.032C1261.86 134.032 1262.9 134.608 1263.26 135.544C1263.48 136.12 1263.55 136.768 1263.55 138.028V148H1268.3V137.056C1268.3 134.788 1268.05 133.636 1267.37 132.52C1266.43 131.044 1264.6 130.144 1262.36 130.144C1259.84 130.144 1258.08 131.008 1256.57 133.024V130.612ZM1295.43 135.652C1295.28 134.068 1294.96 133.204 1294.2 132.34C1292.91 130.9 1290.71 130.144 1287.79 130.144C1283.01 130.144 1280.23 132.088 1280.23 135.436C1280.23 137.092 1281.03 138.496 1282.36 139.252C1283.4 139.828 1284.23 140.08 1287.4 140.8C1290.64 141.52 1291.32 141.916 1291.32 143.104C1291.32 144.436 1290.06 145.264 1288.12 145.264C1285.78 145.264 1284.66 144.364 1284.45 142.348H1279.87C1280.13 146.416 1282.9 148.468 1288.05 148.468C1293.05 148.468 1296.11 146.236 1296.11 142.636C1296.11 139.684 1294.35 138.28 1289.31 137.272C1285.63 136.516 1285.02 136.192 1285.02 135.04C1285.02 133.96 1285.99 133.348 1287.69 133.348C1289.77 133.348 1290.71 133.996 1290.96 135.652H1295.43ZM1301.69 123.484C1300.18 123.484 1298.96 124.672 1298.96 126.184C1298.96 127.66 1300.18 128.884 1301.66 128.884C1303.13 128.884 1304.36 127.66 1304.36 126.184C1304.36 124.708 1303.13 123.484 1301.69 123.484ZM1304 130.612H1299.25V148H1304V130.612ZM1317.03 130.612H1313.5V125.356H1308.75V130.612H1305.84V133.816H1308.75V141.844C1308.75 144.904 1308.9 145.696 1309.51 146.596C1310.3 147.784 1311.63 148.252 1314.12 148.252C1315.09 148.252 1315.84 148.216 1317.03 148.072V144.436C1316.46 144.508 1316.02 144.544 1315.59 144.544C1313.79 144.544 1313.5 144.184 1313.5 142.024V133.816H1317.03V130.612ZM1330.87 142.6C1330.15 144.328 1329.07 145.048 1327.31 145.048C1324.75 145.048 1323.35 143.464 1323.24 140.548H1335.73V139.828C1335.73 133.996 1332.31 130.144 1327.13 130.144C1322.09 130.144 1318.38 134.032 1318.38 139.396C1318.38 144.832 1321.95 148.468 1327.27 148.468C1331.34 148.468 1334.51 146.164 1335.45 142.6H1330.87ZM1323.24 137.488C1323.49 135.076 1325.01 133.564 1327.13 133.564C1329.25 133.564 1330.59 134.968 1330.87 137.488H1323.24Z" fill="black"/>
<path d="M1029.1 181.48H1022.23V183.616H1026.55C1026.51 184.672 1026.36 185.272 1026.03 185.92C1025.26 187.312 1023.94 188.032 1022.19 188.032C1018.99 188.032 1017.1 185.8 1017.1 182.104C1017.1 178.312 1018.99 175.984 1022.09 175.984C1024.27 175.984 1025.83 177.16 1026.17 179.08H1028.91C1028.59 175.84 1025.81 173.608 1022.14 173.608C1017.46 173.608 1014.29 177.064 1014.29 182.128C1014.29 187.024 1017.36 190.384 1021.9 190.384C1024.01 190.384 1025.59 189.664 1026.87 188.104L1027.3 190H1029.1V181.48ZM1041.91 178.408H1039.35V184.096C1039.35 185.464 1039.25 186.16 1038.96 186.688C1038.46 187.648 1037.57 188.176 1036.49 188.176C1035.63 188.176 1034.98 187.864 1034.62 187.312C1034.35 186.904 1034.28 186.4 1034.28 185.032V178.408H1031.71V185.848C1031.71 187.408 1031.93 188.296 1032.51 188.992C1033.2 189.832 1034.35 190.312 1035.67 190.312C1037.31 190.312 1038.46 189.712 1039.51 188.272V190H1041.91V178.408ZM1046.02 173.776C1045.18 173.776 1044.46 174.496 1044.46 175.336C1044.46 176.224 1045.16 176.944 1046 176.944C1046.86 176.944 1047.56 176.248 1047.56 175.408C1047.56 174.496 1046.88 173.776 1046.02 173.776ZM1047.29 178.408H1044.72V190H1047.29V178.408ZM1060.96 173.992H1058.4V179.92C1057.68 178.744 1056.38 178.096 1054.75 178.096C1051.53 178.096 1049.49 180.448 1049.49 184.168C1049.49 187.936 1051.56 190.312 1054.84 190.312C1056.57 190.312 1057.77 189.688 1058.56 188.416V190H1060.96V173.992ZM1055.3 180.136C1057.27 180.136 1058.49 181.696 1058.49 184.216C1058.49 186.736 1057.29 188.272 1055.3 188.272C1053.31 188.272 1052.08 186.688 1052.08 184.168C1052.08 181.624 1053.28 180.136 1055.3 180.136ZM1071.6 186.376C1071.07 187.792 1070.23 188.416 1068.84 188.416C1066.85 188.416 1065.72 187.12 1065.63 184.816H1074.19C1074.22 183.304 1074.03 182.2 1073.59 181.24C1072.73 179.248 1070.91 178.096 1068.7 178.096C1065.43 178.096 1063.08 180.712 1063.08 184.336C1063.08 187.936 1065.36 190.312 1068.79 190.312C1071.48 190.312 1073.45 188.848 1074.05 186.376H1071.6ZM1065.67 183.112C1065.94 181.096 1066.99 179.992 1068.67 179.992C1070.35 179.992 1071.48 181.192 1071.65 183.112H1065.67ZM1078.86 173.992H1076.29V190H1078.86V173.992ZM1082.98 173.776C1082.14 173.776 1081.42 174.496 1081.42 175.336C1081.42 176.224 1082.12 176.944 1082.96 176.944C1083.82 176.944 1084.52 176.248 1084.52 175.408C1084.52 174.496 1083.85 173.776 1082.98 173.776ZM1084.25 178.408H1081.69V190H1084.25V178.408ZM1089.43 178.408H1087.03V190H1089.6V184.192C1089.6 182.968 1089.69 182.296 1089.96 181.72C1090.39 180.808 1091.32 180.232 1092.45 180.232C1093.44 180.232 1094.18 180.664 1094.44 181.36C1094.61 181.816 1094.66 182.248 1094.66 183.256V190H1097.23V182.608C1097.23 181.144 1097.08 180.424 1096.65 179.728C1096.05 178.72 1094.76 178.096 1093.29 178.096C1091.61 178.096 1090.48 178.696 1089.43 180.112V178.408ZM1107.74 186.376C1107.22 187.792 1106.38 188.416 1104.98 188.416C1102.99 188.416 1101.86 187.12 1101.77 184.816H1110.34C1110.36 183.304 1110.17 182.2 1109.74 181.24C1108.87 179.248 1107.05 178.096 1104.84 178.096C1101.58 178.096 1099.22 180.712 1099.22 184.336C1099.22 187.936 1101.5 190.312 1104.94 190.312C1107.62 190.312 1109.59 188.848 1110.19 186.376H1107.74ZM1101.82 183.112C1102.08 181.096 1103.14 179.992 1104.82 179.992C1106.5 179.992 1107.62 181.192 1107.79 183.112H1101.82ZM1121.53 181.768C1121.44 180.688 1121.24 180.112 1120.72 179.536C1119.9 178.6 1118.51 178.096 1116.68 178.096C1113.73 178.096 1111.96 179.392 1111.96 181.528C1111.96 182.608 1112.46 183.496 1113.35 184C1114.02 184.384 1114.36 184.48 1116.68 185.008C1118.92 185.536 1119.44 185.872 1119.44 186.736C1119.44 187.768 1118.46 188.416 1116.95 188.416C1115.2 188.416 1114.31 187.744 1114.14 186.28H1111.69C1111.84 188.944 1113.61 190.312 1116.9 190.312C1120.02 190.312 1121.96 188.848 1121.96 186.52C1121.96 185.536 1121.53 184.672 1120.81 184.168C1120.09 183.664 1119.18 183.328 1117.45 182.968C1114.93 182.44 1114.5 182.176 1114.5 181.312C1114.5 180.472 1115.27 179.968 1116.59 179.968C1118.17 179.968 1118.92 180.496 1119.08 181.768H1121.53ZM1124.49 193.168C1125.47 192.976 1126.07 192.688 1126.6 192.088C1127.18 191.416 1127.51 190.384 1127.51 189.328C1127.51 187.912 1126.82 187 1125.76 187C1124.85 187 1124.15 187.696 1124.15 188.608C1124.15 189.448 1124.85 190.168 1125.71 190.168H1125.79C1125.91 190.168 1126 190.144 1126.07 190.12C1126.03 191.008 1125.38 191.728 1124.49 191.848V193.168ZM1144.45 186.376C1143.92 187.792 1143.08 188.416 1141.69 188.416C1139.69 188.416 1138.57 187.12 1138.47 184.816H1147.04C1147.06 183.304 1146.87 182.2 1146.44 181.24C1145.57 179.248 1143.75 178.096 1141.54 178.096C1138.28 178.096 1135.93 180.712 1135.93 184.336C1135.93 187.936 1138.21 190.312 1141.64 190.312C1144.33 190.312 1146.29 188.848 1146.89 186.376H1144.45ZM1138.52 183.112C1138.78 181.096 1139.84 179.992 1141.52 179.992C1143.2 179.992 1144.33 181.192 1144.49 183.112H1138.52ZM1158.73 178.408H1155.75L1154.24 180.544C1154.07 180.76 1153.9 181 1153.76 181.24C1153.66 181.336 1153.45 181.672 1153.23 182.032C1152.8 181.312 1152.61 181 1152.32 180.592L1150.78 178.408H1147.69L1151.69 183.88L1147.33 190H1150.35L1152.39 186.976C1152.65 186.592 1152.82 186.328 1153.23 185.656C1153.64 186.352 1153.81 186.616 1154 186.904L1156.11 190H1159.23L1154.74 183.784L1158.73 178.408ZM1171.16 188.248C1170.92 188.296 1170.78 188.296 1170.66 188.296C1170.08 188.296 1169.94 188.128 1169.94 187.48V181.384C1169.94 179.392 1168.06 178.096 1165.21 178.096C1163.55 178.096 1162.21 178.48 1161.34 179.2C1160.5 179.872 1160.19 180.544 1160.02 181.936H1162.57C1162.78 180.64 1163.55 180.112 1165.18 180.112C1166.72 180.112 1167.54 180.664 1167.54 181.696C1167.54 182.584 1167.03 182.944 1165.52 183.112C1162.93 183.4 1161.68 183.688 1160.84 184.216C1160.05 184.696 1159.59 185.704 1159.59 186.856C1159.59 188.968 1161.15 190.312 1163.58 190.312C1165.11 190.312 1166.48 189.832 1167.58 188.896C1167.8 189.856 1168.42 190.312 1169.48 190.312C1169.89 190.312 1170.42 190.216 1171.16 190.024V188.248ZM1167.37 186.16C1167.37 187.408 1166.12 188.296 1164.39 188.296C1162.98 188.296 1162.16 187.696 1162.16 186.664C1162.16 185.56 1162.93 185.032 1164.85 184.792C1166.58 184.6 1166.79 184.552 1167.37 184.192V186.16ZM1175.33 178.408H1172.93V190H1175.49V183.784C1175.49 182.776 1175.59 182.152 1175.81 181.696C1176.21 180.784 1177.1 180.232 1178.13 180.232C1179.5 180.232 1180.05 180.952 1180.05 182.752V190H1182.62V183.784C1182.62 182.584 1182.69 182.08 1182.89 181.648C1183.27 180.76 1184.11 180.232 1185.17 180.232C1186.03 180.232 1186.68 180.592 1186.97 181.192C1187.13 181.504 1187.21 182.08 1187.21 182.896V190H1189.77V182.104C1189.77 180.928 1189.58 180.208 1189.15 179.56C1188.5 178.648 1187.3 178.096 1185.98 178.096C1184.37 178.096 1183.25 178.696 1182.24 180.064C1181.61 178.72 1180.58 178.096 1179 178.096C1177.44 178.096 1176.41 178.648 1175.33 180.04V178.408ZM1194.94 178.408H1192.54V194.296H1195.11V188.488C1195.98 189.712 1197.22 190.312 1198.9 190.312C1202.02 190.312 1204.06 187.912 1204.06 184.264C1204.06 180.52 1201.98 178.096 1198.76 178.096C1197.06 178.096 1195.88 178.672 1194.94 179.944V178.408ZM1198.28 180.136C1200.22 180.136 1201.47 181.744 1201.47 184.264C1201.47 186.736 1200.25 188.272 1198.28 188.272C1196.24 188.272 1195.02 186.736 1195.02 184.192C1195.02 181.648 1196.24 180.136 1198.28 180.136ZM1208.82 173.992H1206.26V190H1208.82V173.992ZM1219.45 186.376C1218.92 187.792 1218.08 188.416 1216.69 188.416C1214.69 188.416 1213.57 187.12 1213.47 184.816H1222.04C1222.06 183.304 1221.87 182.2 1221.44 181.24C1220.57 179.248 1218.75 178.096 1216.54 178.096C1213.28 178.096 1210.93 180.712 1210.93 184.336C1210.93 187.936 1213.21 190.312 1216.64 190.312C1219.33 190.312 1221.29 188.848 1221.89 186.376H1219.45ZM1213.52 183.112C1213.78 181.096 1214.84 179.992 1216.52 179.992C1218.2 179.992 1219.33 181.192 1219.49 183.112H1213.52ZM1233.24 181.768C1233.14 180.688 1232.95 180.112 1232.42 179.536C1231.6 178.6 1230.21 178.096 1228.39 178.096C1225.44 178.096 1223.66 179.392 1223.66 181.528C1223.66 182.608 1224.16 183.496 1225.05 184C1225.72 184.384 1226.06 184.48 1228.39 185.008C1230.62 185.536 1231.15 185.872 1231.15 186.736C1231.15 187.768 1230.16 188.416 1228.65 188.416C1226.9 188.416 1226.01 187.744 1225.84 186.28H1223.4C1223.54 188.944 1225.32 190.312 1228.6 190.312C1231.72 190.312 1233.67 188.848 1233.67 186.52C1233.67 185.536 1233.24 184.672 1232.52 184.168C1231.8 183.664 1230.88 183.328 1229.16 182.968C1226.64 182.44 1226.2 182.176 1226.2 181.312C1226.2 180.472 1226.97 179.968 1228.29 179.968C1229.88 179.968 1230.62 180.496 1230.79 181.768H1233.24ZM1236.19 193.168C1237.18 192.976 1237.78 192.688 1238.3 192.088C1238.88 191.416 1239.22 190.384 1239.22 189.328C1239.22 187.912 1238.52 187 1237.46 187C1236.55 187 1235.86 187.696 1235.86 188.608C1235.86 189.448 1236.55 190.168 1237.42 190.168H1237.49C1237.61 190.168 1237.7 190.144 1237.78 190.12C1237.73 191.008 1237.08 191.728 1236.19 191.848V193.168ZM1250.73 178.408H1248.33V194.296H1250.89V188.488C1251.76 189.712 1253.01 190.312 1254.69 190.312C1257.81 190.312 1259.85 187.912 1259.85 184.264C1259.85 180.52 1257.76 178.096 1254.54 178.096C1252.84 178.096 1251.66 178.672 1250.73 179.944V178.408ZM1254.06 180.136C1256.01 180.136 1257.25 181.744 1257.25 184.264C1257.25 186.736 1256.03 188.272 1254.06 188.272C1252.02 188.272 1250.8 186.736 1250.8 184.192C1250.8 181.648 1252.02 180.136 1254.06 180.136ZM1268.73 178.168C1268.52 178.144 1268.35 178.144 1268.28 178.144C1266.45 178.144 1265.28 178.936 1264.34 180.712V178.408H1261.94V190H1264.51V185.344C1264.51 183.112 1264.75 182.224 1265.57 181.432C1266.17 180.856 1266.91 180.568 1267.82 180.568C1268.09 180.568 1268.3 180.592 1268.73 180.64V178.168ZM1275.29 178.096C1271.66 178.096 1269.33 180.472 1269.33 184.216C1269.33 187.912 1271.64 190.312 1275.21 190.312C1278.79 190.312 1281.05 187.96 1281.05 184.216C1281.05 180.496 1278.79 178.096 1275.29 178.096ZM1275.24 180.136C1277.21 180.136 1278.45 181.696 1278.45 184.192C1278.45 186.736 1277.25 188.272 1275.24 188.272C1273.15 188.272 1271.93 186.76 1271.93 184.216C1271.93 181.672 1273.17 180.136 1275.24 180.136ZM1285.62 178.408H1283.22V194.296H1285.79V188.488C1286.66 189.712 1287.9 190.312 1289.58 190.312C1292.7 190.312 1294.74 187.912 1294.74 184.264C1294.74 180.52 1292.66 178.096 1289.44 178.096C1287.74 178.096 1286.56 178.672 1285.62 179.944V178.408ZM1288.96 180.136C1290.9 180.136 1292.15 181.744 1292.15 184.264C1292.15 186.736 1290.93 188.272 1288.96 188.272C1286.92 188.272 1285.7 186.736 1285.7 184.192C1285.7 181.648 1286.92 180.136 1288.96 180.136ZM1304.74 186.376C1304.21 187.792 1303.37 188.416 1301.98 188.416C1299.98 188.416 1298.86 187.12 1298.76 184.816H1307.33C1307.35 183.304 1307.16 182.2 1306.73 181.24C1305.86 179.248 1304.04 178.096 1301.83 178.096C1298.57 178.096 1296.22 180.712 1296.22 184.336C1296.22 187.936 1298.5 190.312 1301.93 190.312C1304.62 190.312 1306.58 188.848 1307.18 186.376H1304.74ZM1298.81 183.112C1299.07 181.096 1300.13 179.992 1301.81 179.992C1303.49 179.992 1304.62 181.192 1304.78 183.112H1298.81ZM1316.08 178.168C1315.86 178.144 1315.69 178.144 1315.62 178.144C1313.8 178.144 1312.62 178.936 1311.68 180.712V178.408H1309.28V190H1311.85V185.344C1311.85 183.112 1312.09 182.224 1312.91 181.432C1313.51 180.856 1314.25 180.568 1315.16 180.568C1315.43 180.568 1315.64 180.592 1316.08 180.64V178.168ZM1323.64 178.408H1321.32V174.928H1318.75V178.408H1316.8V180.28H1318.75V185.8C1318.75 188.08 1318.8 188.536 1319.13 189.088C1319.61 189.808 1320.43 190.12 1321.92 190.12C1322.47 190.12 1322.92 190.096 1323.64 190.024V188.008C1323.28 188.056 1323.02 188.08 1322.68 188.08C1321.51 188.08 1321.32 187.84 1321.32 186.376V180.28H1323.64V178.408ZM1326.78 173.776C1325.94 173.776 1325.22 174.496 1325.22 175.336C1325.22 176.224 1325.91 176.944 1326.75 176.944C1327.62 176.944 1328.31 176.248 1328.31 175.408C1328.31 174.496 1327.64 173.776 1326.78 173.776ZM1328.05 178.408H1325.48V190H1328.05V178.408ZM1338.67 186.376C1338.15 187.792 1337.31 188.416 1335.91 188.416C1333.92 188.416 1332.79 187.12 1332.7 184.816H1341.27C1341.29 183.304 1341.1 182.2 1340.67 181.24C1339.8 179.248 1337.98 178.096 1335.77 178.096C1332.51 178.096 1330.15 180.712 1330.15 184.336C1330.15 187.936 1332.43 190.312 1335.87 190.312C1338.55 190.312 1340.52 188.848 1341.12 186.376H1338.67ZM1332.75 183.112C1333.01 181.096 1334.07 179.992 1335.75 179.992C1337.43 179.992 1338.55 181.192 1338.72 183.112H1332.75ZM1352.46 181.768C1352.37 180.688 1352.17 180.112 1351.65 179.536C1350.83 178.6 1349.44 178.096 1347.61 178.096C1344.66 178.096 1342.89 179.392 1342.89 181.528C1342.89 182.608 1343.39 183.496 1344.28 184C1344.95 184.384 1345.29 184.48 1347.61 185.008C1349.85 185.536 1350.37 185.872 1350.37 186.736C1350.37 187.768 1349.39 188.416 1347.88 188.416C1346.13 188.416 1345.24 187.744 1345.07 186.28H1342.62C1342.77 188.944 1344.54 190.312 1347.83 190.312C1350.95 190.312 1352.89 188.848 1352.89 186.52C1352.89 185.536 1352.46 184.672 1351.74 184.168C1351.02 183.664 1350.11 183.328 1348.38 182.968C1345.86 182.44 1345.43 182.176 1345.43 181.312C1345.43 180.472 1346.2 179.968 1347.52 179.968C1349.1 179.968 1349.85 180.496 1350.01 181.768H1352.46Z" fill="#999999"/>
<path d="M526.534 620.055C525.46 620.312 524.798 621.392 525.055 622.466C525.312 623.54 526.392 624.202 527.466 623.945L526.534 620.055ZM696.946 582.749C697.524 581.807 697.229 580.576 696.287 579.998L680.945 570.585C680.003 570.007 678.772 570.302 678.194 571.244C677.616 572.185 677.911 573.417 678.853 573.994L692.491 582.362L684.123 595.999C683.546 596.941 683.841 598.172 684.782 598.75C685.724 599.328 686.955 599.033 687.533 598.091L696.946 582.749ZM527.466 623.945L695.707 583.648L694.775 579.758L526.534 620.055L527.466 623.945Z" fill="#002677" fill-opacity="0.5"/>
<path d="M527.531 217.072C526.467 216.778 525.365 217.404 525.072 218.469C524.778 219.533 525.404 220.635 526.469 220.928L527.531 217.072ZM694.768 266.711C695.728 266.166 696.065 264.945 695.519 263.984L686.631 248.332C686.086 247.371 684.865 247.035 683.904 247.58C682.944 248.126 682.607 249.346 683.153 250.307L691.053 264.22L677.14 272.121C676.179 272.666 675.843 273.887 676.388 274.848C676.934 275.808 678.155 276.145 679.115 275.599L694.768 266.711ZM526.469 220.928L693.249 266.9L694.311 263.044L527.531 217.072L526.469 220.928Z" fill="#002677" fill-opacity="0.5"/>
<rect x="1" y="94" width="338" height="253.288" rx="5" fill="#D9E9FA"/>
<rect x="108.584" y="115.178" width="210.932" height="210.932" rx="5" fill="white"/>
<ellipse cx="240.311" cy="195.655" rx="44.4737" ry="44.8972" fill="#196ECF"/>
<path d="M144.163 291.379H246.664L144.163 188.877V291.379Z" fill="#002677"/>
<path d="M246.664 188.877L144.163 188.877L246.664 291.378L246.664 188.877Z" fill="#D9E9FA" fill-opacity="0.5"/>
<line x1="299.186" y1="151.257" x2="129.762" y2="151.257" stroke="#D14600" stroke-opacity="0.3"/>
<line x1="299.186" y1="197.848" x2="129.762" y2="197.848" stroke="#D14600" stroke-opacity="0.3"/>
<line x1="299.186" y1="244.439" x2="129.762" y2="244.439" stroke="#D14600" stroke-opacity="0.3"/>
<line x1="299.186" y1="291.031" x2="129.762" y2="291.031" stroke="#D14600" stroke-opacity="0.3"/>
<line x1="144.663" y1="136.356" x2="144.663" y2="305.78" stroke="#D14600" stroke-opacity="0.3"/>
<line x1="284.437" y1="136.356" x2="284.437" y2="305.78" stroke="#D14600" stroke-opacity="0.3"/>
<line x1="214.974" y1="136.356" x2="214.974" y2="305.78" stroke="#D14600" stroke-opacity="0.3"/>
<rect x="15.4011" y="123.649" width="77.0877" height="6.77694" rx="3.38847" fill="#002677" fill-opacity="0.26"/>
<rect x="15.4011" y="191.418" width="77.0877" height="6.77694" rx="3.38847" fill="#002677" fill-opacity="0.26"/>
<rect x="15.4011" y="204.972" width="56.7569" height="6.77694" rx="3.38847" fill="#002677" fill-opacity="0.26"/>
<rect x="75.5466" y="204.972" width="22.8722" height="6.77694" rx="3.38847" fill="#002677" fill-opacity="0.26"/>
<rect x="15.4011" y="164.311" width="65.2281" height="6.77694" rx="3.38847" fill="#002677" fill-opacity="0.26"/>
<rect x="15.4011" y="177.865" width="14.401" height="6.77694" rx="3.38847" fill="#002677" fill-opacity="0.26"/>
<rect x="15.4011" y="137.203" width="53.3684" height="6.77694" rx="3.38847" fill="#002677" fill-opacity="0.26"/>
<rect x="33.1904" y="177.865" width="53.3684" height="6.77694" rx="3.38847" fill="#002677" fill-opacity="0.26"/>
<rect x="15.4011" y="150.757" width="26.2607" height="6.77694" rx="3.38847" fill="#002677" fill-opacity="0.26"/>
<rect x="15.4011" y="218.526" width="26.2607" height="6.77694" rx="3.38847" fill="#002677" fill-opacity="0.26"/>
<rect x="45.05" y="218.526" width="11.8596" height="6.77694" rx="3.38847" fill="#002677" fill-opacity="0.26"/>
<rect x="45.05" y="150.757" width="26.2607" height="6.77694" rx="3.38847" fill="#002677" fill-opacity="0.26"/>
<rect x="71.3108" y="137.203" width="13.5539" height="6.77694" rx="3.38847" fill="#002677" fill-opacity="0.26"/>
<circle cx="25" cy="250" r="10" fill="#196ECF"/>
<circle cx="52" cy="250" r="10" fill="#002677"/>
<circle cx="79" cy="250" r="10" fill="black"/>
<circle cx="25" cy="277" r="10" fill="white"/>
<circle cx="52" cy="277" r="10" fill="#D14600"/>
<circle cx="79" cy="277" r="10" fill="#007000"/>
<path d="M89.304 3.988V28H99.096C102.948 28 105.216 27.244 107.232 25.228C109.5 22.996 110.616 19.828 110.616 15.688C110.616 11.908 109.356 8.704 107.016 6.58C105.036 4.78 102.588 3.988 98.988 3.988H89.304ZM94.524 8.416H98.376C102.948 8.416 105.324 10.972 105.324 15.868C105.324 18.496 104.676 20.584 103.416 21.952C102.336 23.14 101.04 23.572 98.556 23.572H94.524V8.416ZM125.568 22.6C124.848 24.328 123.768 25.048 122.004 25.048C119.448 25.048 118.044 23.464 117.936 20.548H130.428V19.828C130.428 13.996 127.008 10.144 121.824 10.144C116.784 10.144 113.076 14.032 113.076 19.396C113.076 24.832 116.64 28.468 121.968 28.468C126.036 28.468 129.204 26.164 130.14 22.6H125.568ZM117.936 17.488C118.188 15.076 119.7 13.564 121.824 13.564C123.948 13.564 125.28 14.968 125.568 17.488H117.936ZM147.741 15.652C147.597 14.068 147.273 13.204 146.517 12.34C145.221 10.9 143.025 10.144 140.109 10.144C135.321 10.144 132.549 12.088 132.549 15.436C132.549 17.092 133.341 18.496 134.673 19.252C135.717 19.828 136.545 20.08 139.713 20.8C142.953 21.52 143.637 21.916 143.637 23.104C143.637 24.436 142.377 25.264 140.433 25.264C138.093 25.264 136.977 24.364 136.761 22.348H132.189C132.441 26.416 135.213 28.468 140.361 28.468C145.365 28.468 148.425 26.236 148.425 22.636C148.425 19.684 146.661 18.28 141.621 17.272C137.949 16.516 137.337 16.192 137.337 15.04C137.337 13.96 138.309 13.348 140.001 13.348C142.089 13.348 143.025 13.996 143.277 15.652H147.741ZM154.009 3.484C152.497 3.484 151.273 4.672 151.273 6.184C151.273 7.66 152.497 8.884 153.973 8.884C155.449 8.884 156.673 7.66 156.673 6.184C156.673 4.708 155.449 3.484 154.009 3.484ZM156.313 10.612H151.561V28H156.313V10.612ZM176.764 10.612H172.228V12.916C170.86 10.936 169.42 10.144 167.044 10.144C162.472 10.144 159.448 13.636 159.448 18.928C159.448 24.148 162.328 27.46 166.864 27.46C169.204 27.46 170.896 26.596 172.156 24.796V26.776C172.12 30.052 171.076 31.276 168.268 31.276C166.216 31.276 165.172 30.592 164.812 29.044H160.024C160.492 32.68 163.156 34.48 168.16 34.48C171.76 34.48 174.208 33.436 175.612 31.312C176.476 29.98 176.764 28.576 176.764 25.84V10.612ZM168.268 13.852C170.644 13.852 172.192 15.796 172.192 18.82C172.192 21.952 170.644 23.932 168.196 23.932C165.748 23.932 164.236 21.988 164.236 18.82C164.236 15.688 165.712 13.852 168.268 13.852ZM185.558 10.612H181.022V28H185.774V19C185.774 17.488 185.918 16.66 186.242 15.94C186.818 14.752 188.078 14.032 189.554 14.032C190.85 14.032 191.894 14.608 192.254 15.544C192.47 16.12 192.542 16.768 192.542 18.028V28H197.294V17.056C197.294 14.788 197.042 13.636 196.358 12.52C195.422 11.044 193.586 10.144 191.354 10.144C188.834 10.144 187.07 11.008 185.558 13.024V10.612ZM231.869 3.988H225.209L217.793 11.836C217.325 12.34 217.145 12.52 215.777 14.176C215.813 11.944 215.813 11.872 215.813 11.152V3.988H210.593V28H215.813V20.26L218.837 17.236L226.109 28H232.733L222.437 13.492L231.869 3.988ZM237.083 3.484C235.571 3.484 234.347 4.672 234.347 6.184C234.347 7.66 235.571 8.884 237.047 8.884C238.523 8.884 239.747 7.66 239.747 6.184C239.747 4.708 238.523 3.484 237.083 3.484ZM239.387 10.612H234.635V28H239.387V10.612ZM252.42 10.612H248.892V5.356H244.14V10.612H241.224V13.816H244.14V21.844C244.14 24.904 244.284 25.696 244.896 26.596C245.688 27.784 247.02 28.252 249.504 28.252C250.476 28.252 251.232 28.216 252.42 28.072V24.436C251.844 24.508 251.412 24.544 250.98 24.544C249.18 24.544 248.892 24.184 248.892 22.024V13.816H252.42V10.612Z" fill="black"/>
<path d="M36.4531 48.992H33.4531L27.2611 65H30.1651L31.7491 60.752H38.0611L39.5971 65H42.5971L36.4531 48.992ZM37.3411 58.616H32.4691L33.7891 54.992C34.4611 53.144 34.6291 52.688 34.9171 51.68C35.2531 52.832 35.4451 53.456 36.0211 55.04L37.3411 58.616ZM52.9657 56.768C52.8697 55.688 52.6777 55.112 52.1497 54.536C51.3337 53.6 49.9417 53.096 48.1177 53.096C45.1657 53.096 43.3897 54.392 43.3897 56.528C43.3897 57.608 43.8937 58.496 44.7817 59C45.4537 59.384 45.7897 59.48 48.1177 60.008C50.3497 60.536 50.8777 60.872 50.8777 61.736C50.8777 62.768 49.8937 63.416 48.3817 63.416C46.6297 63.416 45.7417 62.744 45.5737 61.28H43.1257C43.2697 63.944 45.0457 65.312 48.3337 65.312C51.4537 65.312 53.3977 63.848 53.3977 61.52C53.3977 60.536 52.9657 59.672 52.2457 59.168C51.5257 58.664 50.6137 58.328 48.8857 57.968C46.3657 57.44 45.9337 57.176 45.9337 56.312C45.9337 55.472 46.7017 54.968 48.0217 54.968C49.6057 54.968 50.3497 55.496 50.5177 56.768H52.9657ZM64.6844 56.768C64.5884 55.688 64.3964 55.112 63.8684 54.536C63.0524 53.6 61.6604 53.096 59.8364 53.096C56.8844 53.096 55.1084 54.392 55.1084 56.528C55.1084 57.608 55.6124 58.496 56.5004 59C57.1724 59.384 57.5084 59.48 59.8364 60.008C62.0684 60.536 62.5964 60.872 62.5964 61.736C62.5964 62.768 61.6124 63.416 60.1004 63.416C58.3484 63.416 57.4604 62.744 57.2924 61.28H54.8444C54.9884 63.944 56.7644 65.312 60.0524 65.312C63.1724 65.312 65.1164 63.848 65.1164 61.52C65.1164 60.536 64.6844 59.672 63.9644 59.168C63.2444 58.664 62.3324 58.328 60.6044 57.968C58.0844 57.44 57.6524 57.176 57.6524 56.312C57.6524 55.472 58.4204 54.968 59.7404 54.968C61.3244 54.968 62.0684 55.496 62.2364 56.768H64.6844ZM75.0129 61.376C74.4849 62.792 73.6449 63.416 72.2529 63.416C70.2609 63.416 69.1329 62.12 69.0369 59.816H77.6049C77.6289 58.304 77.4369 57.2 77.0049 56.24C76.1409 54.248 74.3169 53.096 72.1089 53.096C68.8449 53.096 66.4929 55.712 66.4929 59.336C66.4929 62.936 68.7729 65.312 72.2049 65.312C74.8929 65.312 76.8609 63.848 77.4609 61.376H75.0129ZM69.0849 58.112C69.3489 56.096 70.4049 54.992 72.0849 54.992C73.7649 54.992 74.8929 56.192 75.0609 58.112H69.0849ZM84.9907 53.408H82.6627V49.928H80.0947V53.408H78.1507V55.28H80.0947V60.8C80.0947 63.08 80.1427 63.536 80.4787 64.088C80.9587 64.808 81.7747 65.12 83.2627 65.12C83.8147 65.12 84.2707 65.096 84.9907 65.024V63.008C84.6307 63.056 84.3667 63.08 84.0307 63.08C82.8547 63.08 82.6627 62.84 82.6627 61.376V55.28H84.9907V53.408ZM96.0673 56.768C95.9713 55.688 95.7793 55.112 95.2513 54.536C94.4353 53.6 93.0433 53.096 91.2193 53.096C88.2673 53.096 86.4913 54.392 86.4913 56.528C86.4913 57.608 86.9953 58.496 87.8833 59C88.5553 59.384 88.8913 59.48 91.2193 60.008C93.4513 60.536 93.9793 60.872 93.9793 61.736C93.9793 62.768 92.9953 63.416 91.4833 63.416C89.7313 63.416 88.8433 62.744 88.6753 61.28H86.2273C86.3713 63.944 88.1473 65.312 91.4353 65.312C94.5553 65.312 96.4993 63.848 96.4993 61.52C96.4993 60.536 96.0673 59.672 95.3473 59.168C94.6273 58.664 93.7153 58.328 91.9873 57.968C89.4673 57.44 89.0353 57.176 89.0353 56.312C89.0353 55.472 89.8033 54.968 91.1233 54.968C92.7073 54.968 93.4513 55.496 93.6193 56.768H96.0673ZM99.0249 68.168C100.009 67.976 100.609 67.688 101.137 67.088C101.713 66.416 102.049 65.384 102.049 64.328C102.049 62.912 101.353 62 100.297 62C99.3849 62 98.6889 62.696 98.6889 63.608C98.6889 64.448 99.3849 65.168 100.249 65.168H100.321C100.441 65.168 100.537 65.144 100.609 65.12C100.561 66.008 99.9129 66.728 99.0249 66.848V68.168ZM113.558 53.408H111.158V69.296H113.726V63.488C114.59 64.712 115.838 65.312 117.518 65.312C120.638 65.312 122.678 62.912 122.678 59.264C122.678 55.52 120.59 53.096 117.374 53.096C115.67 53.096 114.494 53.672 113.558 54.944V53.408ZM116.894 55.136C118.838 55.136 120.086 56.744 120.086 59.264C120.086 61.736 118.862 63.272 116.894 63.272C114.854 63.272 113.63 61.736 113.63 59.192C113.63 56.648 114.854 55.136 116.894 55.136ZM131.565 53.168C131.349 53.144 131.181 53.144 131.109 53.144C129.285 53.144 128.109 53.936 127.173 55.712V53.408H124.773V65H127.341V60.344C127.341 58.112 127.581 57.224 128.397 56.432C128.997 55.856 129.741 55.568 130.653 55.568C130.917 55.568 131.133 55.592 131.565 55.64V53.168ZM138.119 53.096C134.495 53.096 132.167 55.472 132.167 59.216C132.167 62.912 134.471 65.312 138.047 65.312C141.623 65.312 143.879 62.96 143.879 59.216C143.879 55.496 141.623 53.096 138.119 53.096ZM138.071 55.136C140.039 55.136 141.287 56.696 141.287 59.192C141.287 61.736 140.087 63.272 138.071 63.272C135.983 63.272 134.759 61.76 134.759 59.216C134.759 56.672 136.007 55.136 138.071 55.136ZM151.342 53.408H149.014V49.928H146.446V53.408H144.502V55.28H146.446V60.8C146.446 63.08 146.494 63.536 146.83 64.088C147.31 64.808 148.126 65.12 149.614 65.12C150.166 65.12 150.622 65.096 151.342 65.024V63.008C150.982 63.056 150.718 63.08 150.382 63.08C149.206 63.08 149.014 62.84 149.014 61.376V55.28H151.342V53.408ZM158.275 53.096C154.651 53.096 152.323 55.472 152.323 59.216C152.323 62.912 154.627 65.312 158.203 65.312C161.779 65.312 164.035 62.96 164.035 59.216C164.035 55.496 161.779 53.096 158.275 53.096ZM158.227 55.136C160.195 55.136 161.443 56.696 161.443 59.192C161.443 61.736 160.243 63.272 158.227 63.272C156.139 63.272 154.915 61.76 154.915 59.216C154.915 56.672 156.163 55.136 158.227 55.136ZM171.499 53.408H169.171V49.928H166.603V53.408H164.659V55.28H166.603V60.8C166.603 63.08 166.651 63.536 166.987 64.088C167.467 64.808 168.283 65.12 169.771 65.12C170.323 65.12 170.779 65.096 171.499 65.024V63.008C171.139 63.056 170.875 63.08 170.539 63.08C169.363 63.08 169.171 62.84 169.171 61.376V55.28H171.499V53.408ZM183.982 53.408H181.318L179.23 59.48C178.966 60.32 178.774 60.872 178.366 62.336C177.982 60.92 177.79 60.344 177.55 59.648L175.294 53.408H172.486L176.902 64.616C176.83 65.072 176.59 65.744 176.254 66.44C175.966 67.04 175.558 67.304 174.934 67.304C174.646 67.304 174.334 67.256 173.614 67.16V69.296C174.478 69.416 174.862 69.44 175.366 69.44C176.566 69.44 177.406 69.08 178.054 68.264C178.558 67.64 178.846 67.064 179.686 64.784L183.982 53.408ZM187.855 53.408H185.455V69.296H188.023V63.488C188.887 64.712 190.135 65.312 191.815 65.312C194.935 65.312 196.975 62.912 196.975 59.264C196.975 55.52 194.887 53.096 191.671 53.096C189.967 53.096 188.791 53.672 187.855 54.944V53.408ZM191.191 55.136C193.135 55.136 194.383 56.744 194.383 59.264C194.383 61.736 193.159 63.272 191.191 63.272C189.151 63.272 187.927 61.736 187.927 59.192C187.927 56.648 189.151 55.136 191.191 55.136ZM206.966 61.376C206.438 62.792 205.598 63.416 204.206 63.416C202.214 63.416 201.086 62.12 200.99 59.816H209.558C209.582 58.304 209.39 57.2 208.958 56.24C208.094 54.248 206.27 53.096 204.062 53.096C200.798 53.096 198.446 55.712 198.446 59.336C198.446 62.936 200.726 65.312 204.158 65.312C206.846 65.312 208.814 63.848 209.414 61.376H206.966ZM201.038 58.112C201.302 56.096 202.358 54.992 204.038 54.992C205.718 54.992 206.846 56.192 207.014 58.112H201.038ZM220.755 56.768C220.659 55.688 220.467 55.112 219.939 54.536C219.123 53.6 217.731 53.096 215.907 53.096C212.955 53.096 211.179 54.392 211.179 56.528C211.179 57.608 211.683 58.496 212.571 59C213.243 59.384 213.579 59.48 215.907 60.008C218.139 60.536 218.667 60.872 218.667 61.736C218.667 62.768 217.683 63.416 216.171 63.416C214.419 63.416 213.531 62.744 213.363 61.28H210.915C211.059 63.944 212.835 65.312 216.123 65.312C219.243 65.312 221.187 63.848 221.187 61.52C221.187 60.536 220.755 59.672 220.035 59.168C219.315 58.664 218.403 58.328 216.675 57.968C214.155 57.44 213.723 57.176 213.723 56.312C213.723 55.472 214.491 54.968 215.811 54.968C217.395 54.968 218.139 55.496 218.307 56.768H220.755ZM223.712 68.168C224.696 67.976 225.296 67.688 225.824 67.088C226.4 66.416 226.736 65.384 226.736 64.328C226.736 62.912 226.04 62 224.984 62C224.072 62 223.376 62.696 223.376 63.608C223.376 64.448 224.072 65.168 224.936 65.168H225.008C225.128 65.168 225.224 65.144 225.296 65.12C225.248 66.008 224.6 66.728 223.712 66.848V68.168ZM242.565 53.168C242.349 53.144 242.181 53.144 242.109 53.144C240.285 53.144 239.109 53.936 238.173 55.712V53.408H235.773V65H238.341V60.344C238.341 58.112 238.581 57.224 239.397 56.432C239.997 55.856 240.741 55.568 241.653 55.568C241.917 55.568 242.133 55.592 242.565 55.64V53.168ZM251.614 61.376C251.086 62.792 250.246 63.416 248.854 63.416C246.862 63.416 245.734 62.12 245.638 59.816H254.206C254.23 58.304 254.038 57.2 253.606 56.24C252.742 54.248 250.918 53.096 248.71 53.096C245.446 53.096 243.094 55.712 243.094 59.336C243.094 62.936 245.374 65.312 248.806 65.312C251.494 65.312 253.462 63.848 254.062 61.376H251.614ZM245.686 58.112C245.95 56.096 247.006 54.992 248.686 54.992C250.366 54.992 251.494 56.192 251.662 58.112H245.686ZM265.917 53.408H263.277L261.549 58.616C260.853 60.704 260.661 61.352 260.397 62.6C260.181 61.592 259.821 60.32 259.245 58.64L257.445 53.408H254.661L258.909 65H261.765L265.917 53.408ZM268.806 48.776C267.966 48.776 267.246 49.496 267.246 50.336C267.246 51.224 267.942 51.944 268.782 51.944C269.646 51.944 270.342 51.248 270.342 50.408C270.342 49.496 269.67 48.776 268.806 48.776ZM270.078 53.408H267.51V65H270.078V53.408ZM280.7 61.376C280.172 62.792 279.332 63.416 277.94 63.416C275.948 63.416 274.82 62.12 274.724 59.816H283.292C283.316 58.304 283.124 57.2 282.692 56.24C281.828 54.248 280.004 53.096 277.796 53.096C274.532 53.096 272.18 55.712 272.18 59.336C272.18 62.936 274.46 65.312 277.892 65.312C280.58 65.312 282.548 63.848 283.148 61.376H280.7ZM274.772 58.112C275.036 56.096 276.092 54.992 277.772 54.992C279.452 54.992 280.58 56.192 280.748 58.112H274.772ZM300.856 53.408H298.24L296.656 58.904C296.416 59.768 296.248 60.512 295.864 62.312C295.528 60.56 295.36 59.84 295.12 58.88L293.68 53.408H291.112L289.912 58.184C289.6 59.432 289.408 60.296 289 62.384C288.544 60.416 288.376 59.72 287.992 58.304L286.648 53.408H283.912L287.584 65H290.224L291.688 59.288C291.88 58.472 292.048 57.8 292.384 56.168C292.672 57.68 292.792 58.232 293.08 59.312L294.592 65H297.208L300.856 53.408ZM311.434 56.768C311.338 55.688 311.146 55.112 310.618 54.536C309.802 53.6 308.41 53.096 306.586 53.096C303.634 53.096 301.858 54.392 301.858 56.528C301.858 57.608 302.362 58.496 303.25 59C303.922 59.384 304.258 59.48 306.586 60.008C308.818 60.536 309.346 60.872 309.346 61.736C309.346 62.768 308.362 63.416 306.85 63.416C305.098 63.416 304.21 62.744 304.042 61.28H301.594C301.738 63.944 303.514 65.312 306.802 65.312C309.922 65.312 311.866 63.848 311.866 61.52C311.866 60.536 311.434 59.672 310.714 59.168C309.994 58.664 309.082 58.328 307.354 57.968C304.834 57.44 304.402 57.176 304.402 56.312C304.402 55.472 305.17 54.968 306.49 54.968C308.074 54.968 308.818 55.496 308.986 56.768H311.434Z" fill="#999999"/>
<rect y="525" width="338" height="253.288" rx="5" fill="#002677"/>
<rect x="27" y="548" width="133" height="145" rx="5" fill="white"/>
<ellipse cx="110" cy="610.5" rx="28" ry="28.5" fill="#196ECF"/>
<path d="M49 671H114L49 606V671Z" fill="#002677"/>
<path d="M114 606L49 606L114 671L114 606Z" fill="#D9E9FA" fill-opacity="0.5"/>
<line x1="186" y1="569" x2="296" y2="569" stroke="#D9E9FA" stroke-width="8" stroke-linecap="round"/>
<line x1="4" y1="-4" x2="84.5336" y2="-4" transform="matrix(0.999937 -0.0112204 0.00401412 0.999992 182 622)" stroke="#196ECF" stroke-width="8" stroke-linecap="round"/>
<line x1="4" y1="-4" x2="84.5336" y2="-4" transform="matrix(0.999937 -0.0112204 0.00401412 0.999992 182 751)" stroke="#196ECF" stroke-width="8" stroke-linecap="round"/>
<line x1="4" y1="-4" x2="84.5336" y2="-4" transform="matrix(-0.999937 0.0112203 -0.00401403 -0.999992 316 696)" stroke="#196ECF" stroke-width="8" stroke-linecap="round"/>
<line x1="196" y1="585" x2="243" y2="585" stroke="#D9E9FA" stroke-width="8" stroke-linecap="round"/>
<line x1="302" y1="733" x2="255" y2="733" stroke="#D9E9FA" stroke-width="8" stroke-linecap="round"/>
<line x1="244" y1="601" x2="258" y2="601" stroke="#D9E9FA" stroke-width="8" stroke-linecap="round"/>
<line x1="254" y1="717" x2="188" y2="717" stroke="#D9E9FA" stroke-width="8" stroke-linecap="round"/>
<line x1="204" y1="601" x2="232" y2="601" stroke="white" stroke-width="8" stroke-linecap="round"/>
<line x1="294" y1="717" x2="266" y2="717" stroke="white" stroke-width="8" stroke-linecap="round"/>
<line x1="253" y1="585" x2="281" y2="585" stroke="#196ECF" stroke-width="8" stroke-linecap="round"/>
<line x1="245" y1="733" x2="217" y2="733" stroke="#196ECF" stroke-width="8" stroke-linecap="round"/>
<line x1="268" y1="601" x2="276" y2="601" stroke="white" stroke-width="8" stroke-linecap="round"/>
<line x1="302" y1="617" x2="310" y2="617" stroke="white" stroke-width="8" stroke-linecap="round"/>
<line x1="302" y1="746" x2="310" y2="746" stroke="white" stroke-width="8" stroke-linecap="round"/>
<line x1="217" y1="701" x2="188" y2="701" stroke="white" stroke-width="8" stroke-linecap="round"/>
<line x1="304" y1="634" x2="312" y2="634" stroke="#D9E9FA" stroke-width="8" stroke-linecap="round"/>
<line x1="194" y1="684" x2="186" y2="684" stroke="#D9E9FA" stroke-width="8" stroke-linecap="round"/>
<line x1="238" y1="634" x2="292" y2="634" stroke="white" stroke-width="8" stroke-linecap="round"/>
<line x1="281" y1="684" x2="206" y2="684" stroke="white" stroke-width="8" stroke-linecap="round"/>
<line x1="234" y1="650" x2="296" y2="650" stroke="#196ECF" stroke-width="8" stroke-linecap="round"/>
<line x1="264" y1="668" x2="202" y2="668" stroke="#196ECF" stroke-width="8" stroke-linecap="round"/>
<line x1="196" y1="634" x2="203" y2="634" stroke="#196ECF" stroke-width="8" stroke-linecap="round"/>
<line x1="302" y1="684" x2="295" y2="684" stroke="#196ECF" stroke-width="8" stroke-linecap="round"/>
<line x1="186" y1="650" x2="199" y2="650" stroke="#D9E9FA" stroke-width="8" stroke-linecap="round"/>
<line x1="312" y1="668" x2="299" y2="668" stroke="#D9E9FA" stroke-width="8" stroke-linecap="round"/>
<line x1="214" y1="634" x2="228" y2="634" stroke="#196ECF" stroke-width="8" stroke-linecap="round"/>
<line x1="277" y1="617" x2="291" y2="617" stroke="#196ECF" stroke-width="8" stroke-linecap="round"/>
<line x1="277" y1="746" x2="291" y2="746" stroke="#196ECF" stroke-width="8" stroke-linecap="round"/>
<line x1="288" y1="601" x2="302" y2="601" stroke="#196ECF" stroke-width="8" stroke-linecap="round"/>
<line x1="210" y1="650" x2="224" y2="650" stroke="#D9E9FA" stroke-width="8" stroke-linecap="round"/>
<line x1="288" y1="668" x2="274" y2="668" stroke="#D9E9FA" stroke-width="8" stroke-linecap="round"/>
<circle cx="63.5" cy="734.5" r="16.5" fill="white"/>
<path d="M60.7951 738.875L56.6251 734.705L55.2051 736.115L60.7951 741.705L72.7951 729.705L71.3851 728.295L60.7951 738.875Z" fill="#007000"/>
<circle cx="124.5" cy="734.5" r="16.5" fill="white"/>
<path d="M125 725C119.48 725 115 729.48 115 735C115 740.52 119.48 745 125 745C130.52 745 135 740.52 135 735C135 729.48 130.52 725 125 725ZM125 743C120.58 743 117 739.42 117 735C117 733.15 117.63 731.45 118.69 730.1L129.9 741.31C128.55 742.37 126.85 743 125 743ZM131.31 739.9L120.1 728.69C121.45 727.63 123.15 727 125 727C129.42 727 133 730.58 133 735C133 736.85 132.37 738.55 131.31 739.9Z" fill="#C40000"/>
<path d="M27 553C27 550.239 29.2386 548 32 548H155C157.761 548 160 550.239 160 553V567H27V553Z" fill="#196ECF"/>
<rect x="57" y="554" width="98" height="8" rx="4" fill="white"/>
<circle cx="36" cy="558" r="4" fill="#002677"/>
<circle cx="49" cy="558" r="4" fill="white"/>
<path d="M32.1705 444.748C31.7385 448.348 29.8305 450.22 26.6985 450.22C22.8105 450.22 20.3625 447.052 20.3625 442.048C20.3625 437.008 22.8465 433.804 26.7345 433.804C29.5785 433.804 31.5225 435.352 32.0625 438.052H37.2465C36.8505 433.048 32.4585 429.412 26.8425 429.412C19.8945 429.412 15.0705 434.56 15.0705 441.976C15.0705 449.572 19.6785 454.576 26.6265 454.576C32.7825 454.576 36.9585 450.76 37.4265 444.748H32.1705ZM48.7151 436.144C43.1711 436.144 39.5351 439.78 39.5351 445.324C39.5351 450.796 43.1351 454.468 48.5711 454.468C53.9711 454.468 57.5351 450.832 57.5351 445.288C57.5351 439.816 53.9711 436.144 48.7151 436.144ZM48.5711 439.672C51.1631 439.672 52.7471 441.796 52.7471 445.288C52.7471 448.852 51.1991 450.94 48.5711 450.94C45.9071 450.94 44.3231 448.852 44.3231 445.324C44.3231 441.76 45.8711 439.672 48.5711 439.672ZM65.2236 436.612H60.6876V454H65.4396V444.568C65.4396 443.308 65.5836 442.444 65.8356 441.868C66.4116 440.716 67.5636 440.032 68.8956 440.032C69.9396 440.032 70.8036 440.464 71.1996 441.184C71.4516 441.652 71.5596 442.3 71.5596 443.416V454H76.3116V444.568C76.3116 443.056 76.4196 442.372 76.6716 441.76C77.2116 440.68 78.3276 440.032 79.6596 440.032C80.7756 440.032 81.6756 440.5 82.1076 441.256C82.3596 441.724 82.4676 442.444 82.4676 443.632V454H87.2196V442.3C87.2196 438.376 85.0956 436.144 81.3516 436.144C78.9036 436.144 77.1036 437.044 75.6276 439.024C74.6916 437.08 73.1076 436.144 70.7676 436.144C68.3556 436.144 66.6996 437.008 65.2236 438.988V436.612ZM95.8095 436.612H91.2735V460.156H96.0255V451.84C97.3575 453.64 99.0495 454.468 101.39 454.468C105.962 454.468 108.95 450.868 108.95 445.396C108.95 439.852 105.854 436.144 101.21 436.144C98.8335 436.144 97.0335 437.008 95.8095 438.772V436.612ZM100.058 440.032C102.614 440.032 104.162 442.12 104.162 445.468C104.162 448.744 102.614 450.76 100.058 450.76C97.4295 450.76 95.8455 448.78 95.8455 445.396C95.8455 441.976 97.3935 440.032 100.058 440.032ZM120.399 436.144C114.855 436.144 111.219 439.78 111.219 445.324C111.219 450.796 114.819 454.468 120.255 454.468C125.655 454.468 129.219 450.832 129.219 445.288C129.219 439.816 125.655 436.144 120.399 436.144ZM120.255 439.672C122.847 439.672 124.431 441.796 124.431 445.288C124.431 448.852 122.883 450.94 120.255 450.94C117.591 450.94 116.007 448.852 116.007 445.324C116.007 441.76 117.555 439.672 120.255 439.672ZM136.907 436.612H132.371V454H137.123V445C137.123 443.488 137.267 442.66 137.591 441.94C138.167 440.752 139.427 440.032 140.903 440.032C142.199 440.032 143.243 440.608 143.603 441.544C143.819 442.12 143.891 442.768 143.891 444.028V454H148.643V443.056C148.643 440.788 148.391 439.636 147.707 438.52C146.771 437.044 144.935 436.144 142.703 436.144C140.183 436.144 138.419 437.008 136.907 439.024V436.612ZM164.211 448.6C163.491 450.328 162.411 451.048 160.647 451.048C158.091 451.048 156.687 449.464 156.579 446.548H169.071V445.828C169.071 439.996 165.651 436.144 160.467 436.144C155.427 436.144 151.719 440.032 151.719 445.396C151.719 450.832 155.283 454.468 160.611 454.468C164.679 454.468 167.847 452.164 168.783 448.6H164.211ZM156.579 443.488C156.831 441.076 158.343 439.564 160.467 439.564C162.591 439.564 163.923 440.968 164.211 443.488H156.579ZM176.704 436.612H172.168V454H176.92V445C176.92 443.488 177.064 442.66 177.388 441.94C177.964 440.752 179.224 440.032 180.7 440.032C181.996 440.032 183.04 440.608 183.4 441.544C183.616 442.12 183.688 442.768 183.688 444.028V454H188.44V443.056C188.44 440.788 188.188 439.636 187.504 438.52C186.568 437.044 184.732 436.144 182.5 436.144C179.98 436.144 178.216 437.008 176.704 439.024V436.612ZM201.344 436.612H197.816V431.356H193.064V436.612H190.148V439.816H193.064V447.844C193.064 450.904 193.208 451.696 193.82 452.596C194.612 453.784 195.944 454.252 198.428 454.252C199.4 454.252 200.156 454.216 201.344 454.072V450.436C200.768 450.508 200.336 450.544 199.904 450.544C198.104 450.544 197.816 450.184 197.816 448.024V439.816H201.344V436.612ZM230.368 449.572H218.632V429.988H213.412V454H230.368V449.572ZM235.472 429.484C233.96 429.484 232.736 430.672 232.736 432.184C232.736 433.66 233.96 434.884 235.436 434.884C236.912 434.884 238.136 433.66 238.136 432.184C238.136 430.708 236.912 429.484 235.472 429.484ZM237.776 436.612H233.024V454H237.776V436.612ZM246.74 429.988H241.988V454H246.524V451.804C247.676 453.568 249.512 454.468 251.96 454.468C256.532 454.468 259.664 450.688 259.664 445.108C259.664 439.744 256.676 436.108 252.248 436.108C249.872 436.108 248.036 436.972 246.74 438.736V429.988ZM250.772 439.852C253.256 439.852 254.876 441.976 254.876 445.18C254.876 448.456 253.256 450.58 250.772 450.58C248.18 450.58 246.56 448.528 246.56 445.216C246.56 441.868 248.144 439.852 250.772 439.852ZM274.174 436.324C273.67 436.252 273.454 436.252 273.094 436.252C270.574 436.252 268.738 437.404 267.478 439.816V436.612H262.942V454H267.694V446.728C267.694 444.676 267.874 443.56 268.414 442.696C269.206 441.328 270.61 440.536 272.302 440.536C272.842 440.536 273.31 440.572 274.174 440.716V436.324ZM293.002 450.832H292.858C291.85 450.832 291.67 450.652 291.67 449.464V441.04C291.67 437.836 289.078 436.144 284.182 436.144C281.374 436.144 279.214 436.72 277.81 437.908C276.514 438.988 276.01 439.996 275.83 441.94H280.618C280.834 440.032 281.734 439.348 283.894 439.348C285.91 439.348 286.882 440.068 286.882 441.544C286.882 443.02 286.198 443.38 282.418 443.812C279.538 444.136 278.134 444.532 276.982 445.396C275.866 446.224 275.29 447.556 275.29 449.248C275.29 452.524 277.522 454.468 281.302 454.468C283.894 454.468 285.73 453.748 287.278 452.092C287.71 453.676 288.79 454.36 290.914 454.36C291.778 454.36 292.318 454.252 293.002 453.928V450.832ZM286.882 447.304C286.882 449.896 285.55 451.264 283.03 451.264C281.05 451.264 280.078 450.508 280.078 449.032C280.078 447.34 281.05 446.692 283.966 446.332C285.586 446.116 286.414 445.864 286.882 445.468V447.304ZM306.447 436.324C305.943 436.252 305.727 436.252 305.367 436.252C302.847 436.252 301.011 437.404 299.751 439.816V436.612H295.215V454H299.967V446.728C299.967 444.676 300.147 443.56 300.687 442.696C301.479 441.328 302.883 440.536 304.575 440.536C305.115 440.536 305.583 440.572 306.447 440.716V436.324ZM325.324 436.612H320.392L317.692 444.928C317.296 446.08 317.08 446.944 316.504 449.176C316 447.052 315.784 446.224 315.424 445.144L312.544 436.612H307.396L313.588 452.956C313.66 453.208 313.732 453.64 313.732 454.036C313.732 455.62 312.94 456.232 311.032 456.232H309.628H309.088V460.156L311.032 460.192L311.5 460.228C313.3 460.336 314.74 460.012 315.748 459.364C317.044 458.464 317.62 457.456 318.952 453.928L325.324 436.612Z" fill="black"/>
<path d="M90.7217 489.88C90.3857 492.568 88.9697 494.008 86.6177 494.008C83.7137 494.008 81.8897 491.68 81.8897 487.984C81.8897 486.568 82.2257 485.176 82.8497 484.12C83.6657 482.704 84.9377 481.984 86.6417 481.984C88.7297 481.984 90.2177 483.136 90.6017 485.08H93.3857C93.2897 483.856 92.7617 482.704 91.8737 481.72C90.5537 480.304 88.8497 479.608 86.6897 479.608C82.2017 479.608 79.0817 483.04 79.0817 487.984C79.0817 493.048 82.0577 496.384 86.5457 496.384C88.8737 496.384 90.6017 495.64 91.9217 494.056C92.8577 492.904 93.4097 491.512 93.5057 489.88H90.7217ZM101.037 484.096C97.413 484.096 95.085 486.472 95.085 490.216C95.085 493.912 97.389 496.312 100.965 496.312C104.541 496.312 106.797 493.96 106.797 490.216C106.797 486.496 104.541 484.096 101.037 484.096ZM100.989 486.136C102.957 486.136 104.205 487.696 104.205 490.192C104.205 492.736 103.005 494.272 100.989 494.272C98.901 494.272 97.677 492.76 97.677 490.216C97.677 487.672 98.925 486.136 100.989 486.136ZM119.846 479.992H117.278V485.92C116.558 484.744 115.262 484.096 113.63 484.096C110.414 484.096 108.374 486.448 108.374 490.168C108.374 493.936 110.438 496.312 113.726 496.312C115.454 496.312 116.654 495.688 117.446 494.416V496H119.846V479.992ZM114.182 486.136C116.15 486.136 117.374 487.696 117.374 490.216C117.374 492.736 116.174 494.272 114.182 494.272C112.19 494.272 110.966 492.688 110.966 490.168C110.966 487.624 112.166 486.136 114.182 486.136ZM130.486 492.376C129.958 493.792 129.118 494.416 127.726 494.416C125.734 494.416 124.606 493.12 124.51 490.816H133.078C133.102 489.304 132.91 488.2 132.478 487.24C131.614 485.248 129.79 484.096 127.582 484.096C124.318 484.096 121.966 486.712 121.966 490.336C121.966 493.936 124.246 496.312 127.678 496.312C130.366 496.312 132.334 494.848 132.934 492.376H130.486ZM124.558 489.112C124.822 487.096 125.878 485.992 127.558 485.992C129.238 485.992 130.366 487.192 130.534 489.112H124.558ZM135.373 499.168C136.357 498.976 136.957 498.688 137.485 498.088C138.061 497.416 138.397 496.384 138.397 495.328C138.397 493.912 137.701 493 136.645 493C135.733 493 135.037 493.696 135.037 494.608C135.037 495.448 135.733 496.168 136.597 496.168H136.669C136.789 496.168 136.885 496.144 136.957 496.12C136.909 497.008 136.261 497.728 135.373 497.848V499.168ZM153.049 484.408H150.721V480.928H148.153V484.408H146.209V486.28H148.153V491.8C148.153 494.08 148.201 494.536 148.537 495.088C149.017 495.808 149.833 496.12 151.321 496.12C151.873 496.12 152.329 496.096 153.049 496.024V494.008C152.689 494.056 152.425 494.08 152.089 494.08C150.913 494.08 150.721 493.84 150.721 492.376V486.28H153.049V484.408ZM162.525 492.376C161.997 493.792 161.157 494.416 159.765 494.416C157.773 494.416 156.645 493.12 156.549 490.816H165.117C165.141 489.304 164.949 488.2 164.517 487.24C163.653 485.248 161.829 484.096 159.621 484.096C156.357 484.096 154.005 486.712 154.005 490.336C154.005 493.936 156.285 496.312 159.717 496.312C162.405 496.312 164.373 494.848 164.973 492.376H162.525ZM156.597 489.112C156.861 487.096 157.917 485.992 159.597 485.992C161.277 485.992 162.405 487.192 162.573 489.112H156.597ZM176.313 487.768C176.217 486.688 176.025 486.112 175.497 485.536C174.681 484.6 173.289 484.096 171.465 484.096C168.513 484.096 166.737 485.392 166.737 487.528C166.737 488.608 167.241 489.496 168.129 490C168.801 490.384 169.137 490.48 171.465 491.008C173.697 491.536 174.225 491.872 174.225 492.736C174.225 493.768 173.241 494.416 171.729 494.416C169.977 494.416 169.089 493.744 168.921 492.28H166.473C166.617 494.944 168.393 496.312 171.681 496.312C174.801 496.312 176.745 494.848 176.745 492.52C176.745 491.536 176.313 490.672 175.593 490.168C174.873 489.664 173.961 489.328 172.233 488.968C169.713 488.44 169.281 488.176 169.281 487.312C169.281 486.472 170.049 485.968 171.369 485.968C172.953 485.968 173.697 486.496 173.865 487.768H176.313ZM184.362 484.408H182.034V480.928H179.466V484.408H177.522V486.28H179.466V491.8C179.466 494.08 179.514 494.536 179.85 495.088C180.33 495.808 181.146 496.12 182.634 496.12C183.186 496.12 183.642 496.096 184.362 496.024V494.008C184.002 494.056 183.738 494.08 183.402 494.08C182.226 494.08 182.034 493.84 182.034 492.376V486.28H184.362V484.408ZM195.438 487.768C195.342 486.688 195.15 486.112 194.622 485.536C193.806 484.6 192.414 484.096 190.59 484.096C187.638 484.096 185.862 485.392 185.862 487.528C185.862 488.608 186.366 489.496 187.254 490C187.926 490.384 188.262 490.48 190.59 491.008C192.822 491.536 193.35 491.872 193.35 492.736C193.35 493.768 192.366 494.416 190.854 494.416C189.102 494.416 188.214 493.744 188.046 492.28H185.598C185.742 494.944 187.518 496.312 190.806 496.312C193.926 496.312 195.87 494.848 195.87 492.52C195.87 491.536 195.438 490.672 194.718 490.168C193.998 489.664 193.086 489.328 191.358 488.968C188.838 488.44 188.406 488.176 188.406 487.312C188.406 486.472 189.174 485.968 190.494 485.968C192.078 485.968 192.822 486.496 192.99 487.768H195.438ZM198.396 499.168C199.38 498.976 199.98 498.688 200.508 498.088C201.084 497.416 201.42 496.384 201.42 495.328C201.42 493.912 200.724 493 199.668 493C198.756 493 198.06 493.696 198.06 494.608C198.06 495.448 198.756 496.168 199.62 496.168H199.692C199.812 496.168 199.908 496.144 199.98 496.12C199.932 497.008 199.284 497.728 198.396 497.848V499.168ZM218.137 479.992H215.137L208.945 496H211.849L213.433 491.752H219.745L221.281 496H224.281L218.137 479.992ZM219.025 489.616H214.153L215.473 485.992C216.145 484.144 216.313 483.688 216.601 482.68C216.937 483.832 217.129 484.456 217.705 486.04L219.025 489.616ZM225.77 479.992V496H228.578V489.856H232.658C234.506 489.856 235.538 489.592 236.498 488.848C237.698 487.936 238.298 486.592 238.298 484.864C238.298 483.112 237.626 481.744 236.33 480.88C235.37 480.208 234.362 479.992 232.274 479.992H225.77ZM228.578 482.344H232.01C233.258 482.344 233.882 482.464 234.41 482.8C235.106 483.232 235.49 483.976 235.49 484.936C235.49 485.848 235.154 486.592 234.554 487.048C234.074 487.408 233.378 487.576 232.274 487.576H228.578V482.344ZM243.18 479.992H240.372V496H243.18V479.992Z" fill="#999999"/>
</svg>
