<svg width="2763" height="523" viewBox="0 0 2763 523" fill="none" xmlns="http://www.w3.org/2000/svg">
<path d="M692.096 1.312V44H701.376V27.232H709.76C716.416 27.232 718.016 29.28 718.464 38.24C718.72 41.632 718.976 42.912 719.552 44H729.28L728.896 43.488C728.256 42.528 727.872 40.992 727.616 37.984C726.976 28.128 725.632 25.312 720.896 23.84C725.184 22.24 727.68 18.336 727.68 13.408C727.68 8.992 725.696 5.344 722.112 3.232C719.744 1.824 717.248 1.312 712.704 1.312H692.096ZM701.376 8.672H710.656C716.096 8.672 718.528 10.464 718.528 14.496C718.528 16.544 717.76 18.144 716.288 19.168C715.072 20.064 713.344 20.384 710.272 20.384H701.376V8.672ZM755.566 34.4C754.286 37.472 752.366 38.752 749.23 38.752C744.686 38.752 742.19 35.936 741.998 30.752H764.206V29.472C764.206 19.104 758.126 12.256 748.91 12.256C739.95 12.256 733.358 19.168 733.358 28.704C733.358 38.368 739.694 44.832 749.166 44.832C756.398 44.832 762.03 40.736 763.694 34.4H755.566ZM741.998 25.312C742.446 21.024 745.134 18.336 748.91 18.336C752.686 18.336 755.054 20.832 755.566 25.312H741.998ZM795.775 13.088H787.263L783.359 25.632C781.695 31.072 781.183 33.184 780.607 36.256C780.159 33.44 779.391 30.368 777.919 25.44L773.951 13.088H765.055L775.743 44H785.279L795.775 13.088ZM803.627 0.415997C800.939 0.415997 798.763 2.528 798.763 5.216C798.763 7.84 800.939 10.016 803.562 10.016C806.187 10.016 808.363 7.84 808.363 5.216C808.363 2.592 806.187 0.415997 803.627 0.415997ZM807.723 13.088H799.275V44H807.723V13.088ZM835.628 34.4C834.348 37.472 832.428 38.752 829.292 38.752C824.748 38.752 822.252 35.936 822.06 30.752H844.268V29.472C844.268 19.104 838.188 12.256 828.972 12.256C820.012 12.256 813.42 19.168 813.42 28.704C813.42 38.368 819.756 44.832 829.228 44.832C836.46 44.832 842.092 40.736 843.756 34.4H835.628ZM822.06 25.312C822.508 21.024 825.196 18.336 828.972 18.336C832.748 18.336 835.116 20.832 835.628 25.312H822.06ZM893.435 13.088H884.667L881.083 26.016C880.315 29.024 879.867 31.072 878.907 36.128C878.139 31.2 877.819 29.728 876.859 25.824L873.595 13.088H865.339L862.523 24.48C861.307 29.28 861.051 30.752 860.155 36.192C859.067 30.688 858.619 28.512 857.595 24.8L854.331 13.088H845.37L855.227 44H864.059L867.451 30.496C868.219 27.36 868.603 25.632 869.371 21.088C870.139 25.696 870.459 27.296 871.291 30.496L874.875 44H883.643L893.435 13.088Z" fill="black"/>
<rect x="591" y="87" width="399" height="299" rx="5" fill="#D9E9FA"/>
<rect x="617" y="112" width="280" height="249" rx="5" fill="white"/>
<rect x="617.5" y="112.5" width="279" height="248" rx="4.5" stroke="#002677" stroke-opacity="0.26"/>
<ellipse cx="794.5" cy="207" rx="52.5" ry="53" fill="#196ECF"/>
<circle cx="943.5" cy="328.5" r="16.5" fill="white"/>
<circle cx="943.5" cy="184.5" r="16.5" fill="white"/>
<circle cx="943.5" cy="232.5" r="16.5" fill="white"/>
<path d="M681 320H802L681 199V320Z" fill="#002677"/>
<path d="M802 199L681 199L802 320L802 199Z" fill="#D9E9FA" fill-opacity="0.5"/>
<circle cx="680.5" cy="259.5" r="14.5" fill="#D14600" fill-opacity="0.3"/>
<circle cx="832.5" cy="169.5" r="14.5" fill="#D14600" fill-opacity="0.3"/>
<circle cx="680.5" cy="259.5" r="8.5" fill="#D14600"/>
<circle cx="832.5" cy="169.5" r="8.5" fill="#D14600"/>
<circle cx="943.5" cy="136.5" r="16.5" fill="white"/>
<path d="M940.795 140.875L936.625 136.705L935.205 138.115L940.795 143.705L952.795 131.705L951.385 130.295L940.795 140.875Z" fill="#007000"/>
<path d="M940.795 332.875L936.625 328.705L935.205 330.115L940.795 335.705L952.795 323.705L951.385 322.295L940.795 332.875Z" fill="#007000"/>
<path d="M940.795 188.875L936.625 184.705L935.205 186.115L940.795 191.705L952.795 179.705L951.385 178.295L940.795 188.875Z" fill="#007000"/>
<path d="M940.795 236.875L936.625 232.705L935.205 234.115L940.795 239.705L952.795 227.705L951.385 226.295L940.795 236.875Z" fill="#007000"/>
<circle cx="943.5" cy="280.5" r="16.5" fill="white"/>
<path d="M944 271C938.48 271 934 275.48 934 281C934 286.52 938.48 291 944 291C949.52 291 954 286.52 954 281C954 275.48 949.52 271 944 271ZM944 289C939.58 289 936 285.42 936 281C936 279.15 936.63 277.45 937.69 276.1L948.9 287.31C947.55 288.37 945.85 289 944 289ZM950.31 285.9L939.1 274.69C940.45 273.63 942.15 273 944 273C948.42 273 952 276.58 952 281C952 282.85 951.37 284.55 950.31 285.9Z" fill="#C40000"/>
<path d="M1270.1 1.312V44H1287.5C1294.35 44 1298.38 42.656 1301.97 39.072C1306 35.104 1307.98 29.472 1307.98 22.112C1307.98 15.392 1305.74 9.696 1301.58 5.92C1298.06 2.72 1293.71 1.312 1287.31 1.312H1270.1ZM1279.38 9.184H1286.22C1294.35 9.184 1298.58 13.728 1298.58 22.432C1298.58 27.104 1297.42 30.816 1295.18 33.248C1293.26 35.36 1290.96 36.128 1286.54 36.128H1279.38V9.184ZM1334.57 34.4C1333.29 37.472 1331.37 38.752 1328.23 38.752C1323.69 38.752 1321.19 35.936 1321 30.752H1343.21V29.472C1343.21 19.104 1337.13 12.256 1327.91 12.256C1318.95 12.256 1312.36 19.168 1312.36 28.704C1312.36 38.368 1318.69 44.832 1328.17 44.832C1335.4 44.832 1341.03 40.736 1342.69 34.4H1334.57ZM1321 25.312C1321.45 21.024 1324.13 18.336 1327.91 18.336C1331.69 18.336 1334.05 20.832 1334.57 25.312H1321ZM1374.78 13.088H1366.26L1362.36 25.632C1360.7 31.072 1360.18 33.184 1359.61 36.256C1359.16 33.44 1358.39 30.368 1356.92 25.44L1352.95 13.088H1344.05L1354.74 44H1364.28L1374.78 13.088ZM1397.82 34.4C1396.54 37.472 1394.62 38.752 1391.48 38.752C1386.94 38.752 1384.44 35.936 1384.25 30.752H1406.46V29.472C1406.46 19.104 1400.38 12.256 1391.16 12.256C1382.2 12.256 1375.61 19.168 1375.61 28.704C1375.61 38.368 1381.94 44.832 1391.42 44.832C1398.65 44.832 1404.28 40.736 1405.94 34.4H1397.82ZM1384.25 25.312C1384.7 21.024 1387.38 18.336 1391.16 18.336C1394.94 18.336 1397.3 20.832 1397.82 25.312H1384.25ZM1420.41 1.312H1411.96V44H1420.41V1.312ZM1442.43 12.256C1432.57 12.256 1426.11 18.72 1426.11 28.576C1426.11 38.304 1432.51 44.832 1442.17 44.832C1451.77 44.832 1458.11 38.368 1458.11 28.512C1458.11 18.784 1451.77 12.256 1442.43 12.256ZM1442.17 18.528C1446.78 18.528 1449.6 22.304 1449.6 28.512C1449.6 34.848 1446.84 38.56 1442.17 38.56C1437.44 38.56 1434.62 34.848 1434.62 28.576C1434.62 22.24 1437.37 18.528 1442.17 18.528ZM1471.78 13.088H1463.71V54.944H1472.16V40.16C1474.53 43.36 1477.54 44.832 1481.7 44.832C1489.82 44.832 1495.14 38.432 1495.14 28.704C1495.14 18.848 1489.63 12.256 1481.38 12.256C1477.15 12.256 1473.95 13.792 1471.78 16.928V13.088ZM1479.33 19.168C1483.87 19.168 1486.62 22.88 1486.62 28.832C1486.62 34.656 1483.87 38.24 1479.33 38.24C1474.66 38.24 1471.84 34.72 1471.84 28.704C1471.84 22.624 1474.59 19.168 1479.33 19.168Z" fill="black"/>
<rect x="1182" y="87" width="399" height="299" rx="5" fill="#002677"/>
<line x1="1236" y1="126" x2="1426.66" y2="126" stroke="#D9E9FA" stroke-width="8" stroke-linecap="round"/>
<line x1="1235.97" y1="174.973" x2="1376.97" y2="174.027" stroke="#196ECF" stroke-width="8" stroke-linecap="round"/>
<line x1="1227.97" y1="352.973" x2="1368.97" y2="352.027" stroke="#D9E9FA" stroke-width="8" stroke-linecap="round"/>
<line x1="1369.97" y1="222.973" x2="1510.97" y2="222.027" stroke="#196ECF" stroke-width="8" stroke-linecap="round"/>
<line x1="1253" y1="142" x2="1337.4" y2="142" stroke="#D9E9FA" stroke-width="8" stroke-linecap="round"/>
<line x1="1236" y1="303" x2="1320.4" y2="303" stroke="#D9E9FA" stroke-width="8" stroke-linecap="round"/>
<line x1="1333" y1="158" x2="1362" y2="158" stroke="#D9E9FA" stroke-width="8" stroke-linecap="round"/>
<line x1="1325" y1="336" x2="1354" y2="336" stroke="#D9E9FA" stroke-width="8" stroke-linecap="round"/>
<line x1="1316" y1="319" x2="1345" y2="319" stroke="#D9E9FA" stroke-width="8" stroke-linecap="round"/>
<line x1="1478" y1="142" x2="1507" y2="142" stroke="#D9E9FA" stroke-width="8" stroke-linecap="round"/>
<line x1="1461" y1="303" x2="1490" y2="303" stroke="#D9E9FA" stroke-width="8" stroke-linecap="round"/>
<line x1="1236" y1="286" x2="1343" y2="286" stroke="#D9E9FA" stroke-width="8" stroke-linecap="round"/>
<line x1="1266" y1="158" x2="1319" y2="158" stroke="white" stroke-width="8" stroke-linecap="round"/>
<line x1="1258" y1="336" x2="1311" y2="336" stroke="white" stroke-width="8" stroke-linecap="round"/>
<line x1="1249" y1="319" x2="1302" y2="319" stroke="#196ECF" stroke-width="8" stroke-linecap="round"/>
<line x1="1413" y1="142" x2="1466" y2="142" stroke="white" stroke-width="8" stroke-linecap="round"/>
<line x1="1396" y1="303" x2="1449" y2="303" stroke="white" stroke-width="8" stroke-linecap="round"/>
<line x1="1363" y1="271" x2="1416" y2="271" stroke="white" stroke-width="8" stroke-linecap="round"/>
<line x1="1417" y1="239" x2="1470" y2="239" stroke="white" stroke-width="8" stroke-linecap="round"/>
<line x1="1349" y1="142" x2="1402" y2="142" stroke="#196ECF" stroke-width="8" stroke-linecap="round"/>
<line x1="1332" y1="303" x2="1385" y2="303" stroke="#196ECF" stroke-width="8" stroke-linecap="round"/>
<line x1="1374" y1="158" x2="1392" y2="158" stroke="white" stroke-width="8" stroke-linecap="round"/>
<line x1="1366" y1="336" x2="1384" y2="336" stroke="white" stroke-width="8" stroke-linecap="round"/>
<line x1="1357" y1="319" x2="1375" y2="319" stroke="#196ECF" stroke-width="8" stroke-linecap="round"/>
<line x1="1323" y1="191" x2="1420" y2="191" stroke="white" stroke-width="8" stroke-linecap="round"/>
<line x1="1317" y1="207" x2="1427" y2="207" stroke="#196ECF" stroke-width="8" stroke-linecap="round"/>
<line x1="1253" y1="191" x2="1270" y2="191" stroke="#196ECF" stroke-width="8" stroke-linecap="round"/>
<line x1="1236" y1="207" x2="1264" y2="207" stroke="#D9E9FA" stroke-width="8" stroke-linecap="round"/>
<line x1="1253" y1="239" x2="1405" y2="239" stroke="#D9E9FA" stroke-width="8" stroke-linecap="round"/>
<line x1="1279" y1="271" x2="1351" y2="271" stroke="#196ECF" stroke-width="8" stroke-linecap="round"/>
<line x1="1333" y1="255" x2="1348" y2="255" stroke="#D9E9FA" stroke-width="8" stroke-linecap="round"/>
<line x1="1428" y1="271" x2="1492" y2="271" stroke="#D9E9FA" stroke-width="8" stroke-linecap="round"/>
<line x1="1433" y1="191" x2="1448" y2="191" stroke="#D9E9FA" stroke-width="8" stroke-linecap="round"/>
<line x1="1359" y1="255" x2="1446" y2="255" stroke="#196ECF" stroke-width="8" stroke-linecap="round"/>
<line x1="1266" y1="255" x2="1320" y2="255" stroke="#D9E9FA" stroke-width="8" stroke-linecap="round"/>
<line x1="1283" y1="191" x2="1312" y2="191" stroke="#196ECF" stroke-width="8" stroke-linecap="round"/>
<line x1="1389" y1="174" x2="1418" y2="174" stroke="#196ECF" stroke-width="8" stroke-linecap="round"/>
<line x1="1381" y1="352" x2="1410" y2="352" stroke="#196ECF" stroke-width="8" stroke-linecap="round"/>
<line x1="1276" y1="207" x2="1305" y2="207" stroke="#D9E9FA" stroke-width="8" stroke-linecap="round"/>
<line x1="1320" y1="223" x2="1358" y2="223" stroke="#196ECF" stroke-width="8" stroke-linecap="round"/>
<line x1="1253" y1="223" x2="1307" y2="223" stroke="#196ECF" stroke-width="8" stroke-linecap="round"/>
<path d="M1949.16 1.312H1914.02V9.184H1926.89V44H1936.17V9.184H1949.16V1.312ZM1969.25 34.4C1967.97 37.472 1966.05 38.752 1962.92 38.752C1958.37 38.752 1955.88 35.936 1955.69 30.752H1977.89V29.472C1977.89 19.104 1971.81 12.256 1962.6 12.256C1953.64 12.256 1947.05 19.168 1947.05 28.704C1947.05 38.368 1953.38 44.832 1962.85 44.832C1970.09 44.832 1975.72 40.736 1977.38 34.4H1969.25ZM1955.69 25.312C1956.13 21.024 1958.82 18.336 1962.6 18.336C1966.37 18.336 1968.74 20.832 1969.25 25.312H1955.69ZM2008.67 22.048C2008.42 19.232 2007.84 17.696 2006.5 16.16C2004.19 13.6 2000.29 12.256 1995.1 12.256C1986.59 12.256 1981.66 15.712 1981.66 21.664C1981.66 24.608 1983.07 27.104 1985.44 28.448C1987.3 29.472 1988.77 29.92 1994.4 31.2C2000.16 32.48 2001.38 33.184 2001.38 35.296C2001.38 37.664 1999.14 39.136 1995.68 39.136C1991.52 39.136 1989.54 37.536 1989.15 33.952H1981.02C1981.47 41.184 1986.4 44.832 1995.55 44.832C2004.45 44.832 2009.89 40.864 2009.89 34.464C2009.89 29.216 2006.75 26.72 1997.79 24.928C1991.26 23.584 1990.18 23.008 1990.18 20.96C1990.18 19.04 1991.9 17.952 1994.91 17.952C1998.62 17.952 2000.29 19.104 2000.74 22.048H2008.67ZM2031.33 13.088H2025.06V3.744H2016.61V13.088H2011.43V18.784H2016.61V33.056C2016.61 38.496 2016.87 39.904 2017.95 41.504C2019.36 43.616 2021.73 44.448 2026.15 44.448C2027.87 44.448 2029.22 44.384 2031.33 44.128V37.664C2030.31 37.792 2029.54 37.856 2028.77 37.856C2025.57 37.856 2025.06 37.216 2025.06 33.376V18.784H2031.33V13.088Z" fill="black"/>
<rect x="1773" y="87" width="399" height="299" rx="5" fill="#D9E9FA"/>
<path d="M1773 92C1773 89.2386 1775.24 87 1778 87H2167C2169.76 87 2172 89.2386 2172 92V113H1773V92Z" fill="#196ECF"/>
<rect x="1823" y="93" width="335" height="14" rx="5" fill="white"/>
<rect x="1985" y="169" width="133" height="133" rx="5" fill="white"/>
<rect x="1985.5" y="169.5" width="132" height="132" rx="4.5" stroke="#002677" stroke-opacity="0.26"/>
<ellipse cx="2068" cy="219.5" rx="28" ry="28.5" fill="#196ECF"/>
<path d="M2007 280H2072L2007 215V280Z" fill="#002677"/>
<path d="M2072 215L2007 215L2072 280L2072 215Z" fill="#D9E9FA" fill-opacity="0.5"/>
<rect x="1828" y="169" width="133" height="133" rx="5" fill="#196ECF"/>
<ellipse cx="1911" cy="219.5" rx="28" ry="28.5" fill="#333333"/>
<path d="M1850 280H1915L1850 215V280Z" fill="white"/>
<path d="M1915 215L1850 215L1915 280L1915 215Z" fill="#D9E9FA" fill-opacity="0.5"/>
<circle cx="2051.5" cy="345.5" r="16.5" fill="white"/>
<path d="M2048.8 349.875L2044.63 345.705L2043.21 347.115L2048.8 352.705L2060.8 340.705L2059.39 339.295L2048.8 349.875Z" fill="#007000"/>
<circle cx="1894.5" cy="345.5" r="16.5" fill="white"/>
<path d="M1895 336C1889.48 336 1885 340.48 1885 346C1885 351.52 1889.48 356 1895 356C1900.52 356 1905 351.52 1905 346C1905 340.48 1900.52 336 1895 336ZM1895 354C1890.58 354 1887 350.42 1887 346C1887 344.15 1887.63 342.45 1888.69 341.1L1899.9 352.31C1898.55 353.37 1896.85 354 1895 354ZM1901.31 350.9L1890.1 339.69C1891.45 338.63 1893.15 338 1895 338C1899.42 338 1903 341.58 1903 346C1903 347.85 1902.37 349.55 1901.31 350.9Z" fill="#C40000"/>
<circle cx="1786" cy="100" r="7" fill="#002677"/>
<circle cx="1808" cy="100" r="7" fill="white"/>
<path d="M2436.1 1.312V44H2453.5C2460.35 44 2464.38 42.656 2467.97 39.072C2472 35.104 2473.98 29.472 2473.98 22.112C2473.98 15.392 2471.74 9.696 2467.58 5.92C2464.06 2.72 2459.71 1.312 2453.31 1.312H2436.1ZM2445.38 9.184H2452.22C2460.35 9.184 2464.58 13.728 2464.58 22.432C2464.58 27.104 2463.42 30.816 2461.18 33.248C2459.26 35.36 2456.96 36.128 2452.54 36.128H2445.38V9.184ZM2484.44 0.415997C2481.75 0.415997 2479.58 2.528 2479.58 5.216C2479.58 7.84 2481.75 10.016 2484.38 10.016C2487 10.016 2489.18 7.84 2489.18 5.216C2489.18 2.592 2487 0.415997 2484.44 0.415997ZM2488.54 13.088H2480.09V44H2488.54V13.088ZM2520.98 22.048C2520.73 19.232 2520.15 17.696 2518.81 16.16C2516.5 13.6 2512.6 12.256 2507.42 12.256C2498.9 12.256 2493.98 15.712 2493.98 21.664C2493.98 24.608 2495.38 27.104 2497.75 28.448C2499.61 29.472 2501.08 29.92 2506.71 31.2C2512.47 32.48 2513.69 33.184 2513.69 35.296C2513.69 37.664 2511.45 39.136 2507.99 39.136C2503.83 39.136 2501.85 37.536 2501.46 33.952H2493.34C2493.78 41.184 2498.71 44.832 2507.86 44.832C2516.76 44.832 2522.2 40.864 2522.2 34.464C2522.2 29.216 2519.06 26.72 2510.1 24.928C2503.58 23.584 2502.49 23.008 2502.49 20.96C2502.49 19.04 2504.22 17.952 2507.22 17.952C2510.94 17.952 2512.6 19.104 2513.05 22.048H2520.98ZM2543.64 13.088H2537.37V3.744H2528.92V13.088H2523.74V18.784H2528.92V33.056C2528.92 38.496 2529.18 39.904 2530.27 41.504C2531.67 43.616 2534.04 44.448 2538.46 44.448C2540.19 44.448 2541.53 44.384 2543.64 44.128V37.664C2542.62 37.792 2541.85 37.856 2541.08 37.856C2537.88 37.856 2537.37 37.216 2537.37 33.376V18.784H2543.64V13.088ZM2568.62 12.576C2567.72 12.448 2567.34 12.448 2566.7 12.448C2562.22 12.448 2558.95 14.496 2556.71 18.784V13.088H2548.65V44H2557.1V31.072C2557.1 27.424 2557.42 25.44 2558.38 23.904C2559.79 21.472 2562.28 20.064 2565.29 20.064C2566.25 20.064 2567.08 20.128 2568.62 20.384V12.576ZM2576.69 0.415997C2574 0.415997 2571.83 2.528 2571.83 5.216C2571.83 7.84 2574 10.016 2576.62 10.016C2579.25 10.016 2581.43 7.84 2581.43 5.216C2581.43 2.592 2579.25 0.415997 2576.69 0.415997ZM2580.79 13.088H2572.34V44H2580.79V13.088ZM2596.72 1.312H2588.27V44H2596.34V40.096C2598.39 43.232 2601.65 44.832 2606 44.832C2614.13 44.832 2619.7 38.112 2619.7 28.192C2619.7 18.656 2614.39 12.192 2606.51 12.192C2602.29 12.192 2599.03 13.728 2596.72 16.864V1.312ZM2603.89 18.848C2608.31 18.848 2611.19 22.624 2611.19 28.32C2611.19 34.144 2608.31 37.92 2603.89 37.92C2599.28 37.92 2596.4 34.272 2596.4 28.384C2596.4 22.432 2599.22 18.848 2603.89 18.848ZM2654.26 13.088H2645.81V28.448C2645.81 31.648 2645.56 33.248 2644.92 34.464C2643.76 36.704 2641.72 37.92 2639.09 37.92C2637.04 37.92 2635.44 37.216 2634.55 35.872C2633.84 34.784 2633.72 33.76 2633.72 30.176V13.088H2625.27V32.672C2625.27 36.832 2625.84 39.264 2627.32 41.12C2629.24 43.552 2632.31 44.832 2635.96 44.832C2640.44 44.832 2643.7 43.168 2646.2 39.648V44H2654.26V13.088ZM2677.45 13.088H2671.18V3.744H2662.73V13.088H2657.55V18.784H2662.73V33.056C2662.73 38.496 2662.99 39.904 2664.08 41.504C2665.49 43.616 2667.85 44.448 2672.27 44.448C2674 44.448 2675.34 44.384 2677.45 44.128V37.664C2676.43 37.792 2675.66 37.856 2674.89 37.856C2671.69 37.856 2671.18 37.216 2671.18 33.376V18.784H2677.45V13.088ZM2702.07 34.4C2700.79 37.472 2698.87 38.752 2695.73 38.752C2691.19 38.752 2688.69 35.936 2688.5 30.752H2710.71V29.472C2710.71 19.104 2704.63 12.256 2695.41 12.256C2686.45 12.256 2679.86 19.168 2679.86 28.704C2679.86 38.368 2686.19 44.832 2695.67 44.832C2702.9 44.832 2708.53 40.736 2710.19 34.4H2702.07ZM2688.5 25.312C2688.95 21.024 2691.63 18.336 2695.41 18.336C2699.19 18.336 2701.55 20.832 2702.07 25.312H2688.5Z" fill="black"/>
<rect x="2364" y="87" width="399" height="299" rx="5" fill="#D9E9FA"/>
<path d="M2364 92C2364 89.2386 2366.24 87 2369 87H2758C2760.76 87 2763 89.2386 2763 92V113H2364V92Z" fill="#196ECF"/>
<rect x="2414" y="93" width="335" height="14" rx="5" fill="white"/>
<rect x="2396" y="146" width="133" height="133" rx="5" fill="white"/>
<rect x="2396.5" y="146.5" width="132" height="132" rx="4.5" stroke="#002677" stroke-opacity="0.26"/>
<ellipse cx="2479" cy="196.5" rx="28" ry="28.5" fill="#196ECF"/>
<path d="M2418 257H2483L2418 192V257Z" fill="#002677"/>
<path d="M2483 192L2418 192L2483 257L2483 192Z" fill="#D9E9FA" fill-opacity="0.5"/>
<rect x="2396" y="296" width="277" height="8" rx="4" fill="#002677" fill-opacity="0.26"/>
<rect x="2396" y="344" width="234" height="8" rx="4" fill="#002677" fill-opacity="0.26"/>
<rect x="2396" y="312" width="62" height="8" rx="4" fill="#002677" fill-opacity="0.26"/>
<rect x="2463" y="312" width="124" height="8" rx="4" fill="#002677" fill-opacity="0.26"/>
<rect x="2396" y="328" width="94" height="8" rx="4" fill="#002677" fill-opacity="0.26"/>
<rect x="2496" y="328" width="95" height="8" rx="4" fill="#002677" fill-opacity="0.26"/>
<rect x="2594" y="312" width="48" height="8" rx="4" fill="#002677" fill-opacity="0.26"/>
<rect x="2635" y="344" width="24" height="8" rx="4" fill="#002677" fill-opacity="0.26"/>
<rect x="2646" y="312" width="24" height="8" rx="4" fill="#002677" fill-opacity="0.26"/>
<rect x="2663" y="344" width="24" height="8" rx="4" fill="#002677" fill-opacity="0.26"/>
<rect x="2597" y="328" width="124" height="8" rx="4" fill="#002677" fill-opacity="0.26"/>
<line x1="2568" y1="172" x2="2710" y2="172" stroke="#002677" stroke-width="8" stroke-linecap="round"/>
<line x1="4" y1="-4" x2="108.316" y2="-4" transform="matrix(0.999961 -0.00884449 0.00509251 0.999987 2564 225)" stroke="#196ECF" stroke-width="8" stroke-linecap="round"/>
<line x1="2581" y1="188" x2="2642" y2="188" stroke="#002677" stroke-width="8" stroke-linecap="round"/>
<line x1="2641" y1="204" x2="2661" y2="204" stroke="#002677" stroke-width="8" stroke-linecap="round"/>
<line x1="2591" y1="204" x2="2629" y2="204" stroke="white" stroke-width="8" stroke-linecap="round"/>
<line x1="2653" y1="188" x2="2691" y2="188" stroke="#196ECF" stroke-width="8" stroke-linecap="round"/>
<line x1="2672" y1="204" x2="2684" y2="204" stroke="white" stroke-width="8" stroke-linecap="round"/>
<line x1="2715" y1="220" x2="2727" y2="220" stroke="white" stroke-width="8" stroke-linecap="round"/>
<line x1="2718" y1="237" x2="2730" y2="237" stroke="#002677" stroke-width="8" stroke-linecap="round"/>
<line x1="2634" y1="237" x2="2705" y2="237" stroke="white" stroke-width="8" stroke-linecap="round"/>
<line x1="2629" y1="253" x2="2710" y2="253" stroke="#196ECF" stroke-width="8" stroke-linecap="round"/>
<line x1="2581" y1="237" x2="2592" y2="237" stroke="#196ECF" stroke-width="8" stroke-linecap="round"/>
<line x1="2568" y1="253" x2="2587" y2="253" stroke="#002677" stroke-width="8" stroke-linecap="round"/>
<line x1="2603" y1="237" x2="2623" y2="237" stroke="#196ECF" stroke-width="8" stroke-linecap="round"/>
<line x1="2683" y1="220" x2="2703" y2="220" stroke="#196ECF" stroke-width="8" stroke-linecap="round"/>
<line x1="2697" y1="204" x2="2717" y2="204" stroke="#196ECF" stroke-width="8" stroke-linecap="round"/>
<line x1="2598" y1="253" x2="2618" y2="253" stroke="#002677" stroke-width="8" stroke-linecap="round"/>
<circle cx="2377" cy="100" r="7" fill="#002677"/>
<circle cx="2399" cy="100" r="7" fill="white"/>
<rect y="87" width="399" height="299" rx="5" fill="#D9E9FA"/>
<rect x="127" y="112" width="249" height="249" rx="5" fill="white"/>
<rect x="127.5" y="112.5" width="248" height="248" rx="4.5" stroke="#002677" stroke-opacity="0.26"/>
<ellipse cx="282.5" cy="207" rx="52.5" ry="53" fill="#196ECF"/>
<path d="M169 320H290L169 199V320Z" fill="#002677"/>
<path d="M290 199L169 199L290 320L290 199Z" fill="#D9E9FA" fill-opacity="0.5"/>
<line x1="352" y1="154.5" x2="152" y2="154.5" stroke="#D14600" stroke-opacity="0.3"/>
<line x1="352" y1="209.5" x2="152" y2="209.5" stroke="#D14600" stroke-opacity="0.3"/>
<line x1="352" y1="264.5" x2="152" y2="264.5" stroke="#D14600" stroke-opacity="0.3"/>
<line x1="352" y1="319.5" x2="152" y2="319.5" stroke="#D14600" stroke-opacity="0.3"/>
<line x1="169.5" y1="137" x2="169.5" y2="337" stroke="#D14600" stroke-opacity="0.3"/>
<line x1="334.5" y1="137" x2="334.5" y2="337" stroke="#D14600" stroke-opacity="0.3"/>
<line x1="252.5" y1="137" x2="252.5" y2="337" stroke="#D14600" stroke-opacity="0.3"/>
<rect x="17" y="122" width="91" height="8" rx="4" fill="#002677" fill-opacity="0.26"/>
<rect x="17" y="202" width="91" height="8" rx="4" fill="#002677" fill-opacity="0.26"/>
<rect x="17" y="218" width="67" height="8" rx="4" fill="#002677" fill-opacity="0.26"/>
<rect x="88" y="218" width="27" height="8" rx="4" fill="#002677" fill-opacity="0.26"/>
<rect x="17" y="170" width="77" height="8" rx="4" fill="#002677" fill-opacity="0.26"/>
<rect x="17" y="186" width="17" height="8" rx="4" fill="#002677" fill-opacity="0.26"/>
<rect x="17" y="138" width="63" height="8" rx="4" fill="#002677" fill-opacity="0.26"/>
<rect x="38" y="186" width="63" height="8" rx="4" fill="#002677" fill-opacity="0.26"/>
<rect x="17" y="154" width="31" height="8" rx="4" fill="#002677" fill-opacity="0.26"/>
<rect x="17" y="234" width="31" height="8" rx="4" fill="#002677" fill-opacity="0.26"/>
<rect x="52" y="234" width="14" height="8" rx="4" fill="#002677" fill-opacity="0.26"/>
<rect x="52" y="154" width="31" height="8" rx="4" fill="#002677" fill-opacity="0.26"/>
<rect x="83" y="138" width="16" height="8" rx="4" fill="#002677" fill-opacity="0.26"/>
<path d="M104.096 1.312V44H121.504C128.352 44 132.384 42.656 135.968 39.072C140 35.104 141.984 29.472 141.984 22.112C141.984 15.392 139.744 9.696 135.584 5.92C132.064 2.72 127.712 1.312 121.312 1.312H104.096ZM113.376 9.184H120.224C128.352 9.184 132.576 13.728 132.576 22.432C132.576 27.104 131.424 30.816 129.184 33.248C127.264 35.36 124.96 36.128 120.544 36.128H113.376V9.184ZM168.566 34.4C167.286 37.472 165.366 38.752 162.23 38.752C157.686 38.752 155.19 35.936 154.998 30.752H177.206V29.472C177.206 19.104 171.126 12.256 161.91 12.256C152.95 12.256 146.358 19.168 146.358 28.704C146.358 38.368 152.694 44.832 162.166 44.832C169.398 44.832 175.03 40.736 176.694 34.4H168.566ZM154.998 25.312C155.446 21.024 158.134 18.336 161.91 18.336C165.686 18.336 168.054 20.832 168.566 25.312H154.998ZM207.985 22.048C207.729 19.232 207.153 17.696 205.809 16.16C203.505 13.6 199.601 12.256 194.417 12.256C185.905 12.256 180.977 15.712 180.977 21.664C180.977 24.608 182.385 27.104 184.753 28.448C186.609 29.472 188.081 29.92 193.713 31.2C199.473 32.48 200.689 33.184 200.689 35.296C200.689 37.664 198.449 39.136 194.993 39.136C190.833 39.136 188.849 37.536 188.465 33.952H180.337C180.785 41.184 185.713 44.832 194.865 44.832C203.761 44.832 209.201 40.864 209.201 34.464C209.201 29.216 206.065 26.72 197.105 24.928C190.577 23.584 189.489 23.008 189.489 20.96C189.489 19.04 191.217 17.952 194.225 17.952C197.937 17.952 199.601 19.104 200.049 22.048H207.985ZM219.127 0.415997C216.439 0.415997 214.263 2.528 214.263 5.216C214.263 7.84 216.439 10.016 219.062 10.016C221.687 10.016 223.863 7.84 223.863 5.216C223.863 2.592 221.687 0.415997 219.127 0.415997ZM223.223 13.088H214.775V44H223.223V13.088ZM259.581 13.088H251.517V17.184C249.085 13.664 246.525 12.256 242.301 12.256C234.173 12.256 228.797 18.464 228.797 27.872C228.797 37.152 233.917 43.04 241.981 43.04C246.141 43.04 249.149 41.504 251.389 38.304V41.824C251.325 47.648 249.469 49.824 244.477 49.824C240.829 49.824 238.973 48.608 238.333 45.856H229.821C230.653 52.32 235.389 55.52 244.285 55.52C250.685 55.52 255.037 53.664 257.533 49.888C259.069 47.52 259.581 45.024 259.581 40.16V13.088ZM244.477 18.848C248.701 18.848 251.453 22.304 251.453 27.68C251.453 33.248 248.701 36.768 244.349 36.768C239.997 36.768 237.309 33.312 237.309 27.68C237.309 22.112 239.933 18.848 244.477 18.848ZM275.214 13.088H267.15V44H275.598V28C275.598 25.312 275.854 23.84 276.43 22.56C277.454 20.448 279.694 19.168 282.318 19.168C284.622 19.168 286.478 20.192 287.118 21.856C287.502 22.88 287.63 24.032 287.63 26.272V44H296.078V24.544C296.078 20.512 295.63 18.464 294.414 16.48C292.75 13.856 289.486 12.256 285.518 12.256C281.038 12.256 277.902 13.792 275.214 17.376V13.088Z" fill="black"/>
<path d="M461 252C459.343 252 458 253.343 458 255C458 256.657 459.343 258 461 258V252ZM531.121 257.121C532.293 255.95 532.293 254.05 531.121 252.879L512.029 233.787C510.858 232.615 508.958 232.615 507.787 233.787C506.615 234.958 506.615 236.858 507.787 238.029L524.757 255L507.787 271.971C506.615 273.142 506.615 275.042 507.787 276.213C508.958 277.385 510.858 277.385 512.029 276.213L531.121 257.121ZM461 258H529V252H461V258Z" fill="#002677" fill-opacity="0.5"/>
<path d="M1052 252C1050.34 252 1049 253.343 1049 255C1049 256.657 1050.34 258 1052 258V252ZM1122.12 257.121C1123.29 255.95 1123.29 254.05 1122.12 252.879L1103.03 233.787C1101.86 232.615 1099.96 232.615 1098.79 233.787C1097.62 234.958 1097.62 236.858 1098.79 238.029L1115.76 255L1098.79 271.971C1097.62 273.142 1097.62 275.042 1098.79 276.213C1099.96 277.385 1101.86 277.385 1103.03 276.213L1122.12 257.121ZM1052 258H1120V252H1052V258Z" fill="#002677" fill-opacity="0.5"/>
<path d="M1635 252C1633.34 252 1632 253.343 1632 255C1632 256.657 1633.34 258 1635 258V252ZM1705.12 257.121C1706.29 255.95 1706.29 254.05 1705.12 252.879L1686.03 233.787C1684.86 232.615 1682.96 232.615 1681.79 233.787C1680.62 234.958 1680.62 236.858 1681.79 238.029L1698.76 255L1681.79 271.971C1680.62 273.142 1680.62 275.042 1681.79 276.213C1682.96 277.385 1684.86 277.385 1686.03 276.213L1705.12 257.121ZM1635 258H1703V252H1635V258Z" fill="#002677" fill-opacity="0.5"/>
<path d="M2234 252C2232.34 252 2231 253.343 2231 255C2231 256.657 2232.34 258 2234 258V252ZM2304.12 257.121C2305.29 255.95 2305.29 254.05 2304.12 252.879L2285.03 233.787C2283.86 232.615 2281.96 232.615 2280.79 233.787C2279.62 234.958 2279.62 236.858 2280.79 238.029L2297.76 255L2280.79 271.971C2279.62 273.142 2279.62 275.042 2280.79 276.213C2281.96 277.385 2283.86 277.385 2285.03 276.213L2304.12 257.121ZM2234 258H2302V252H2234V258Z" fill="#002677" fill-opacity="0.5"/>
<line x1="2585" y1="457" x2="2585" y2="519" stroke="#002677" stroke-opacity="0.5" stroke-width="6" stroke-linecap="round"/>
<path d="M205.121 454.879C203.95 453.707 202.05 453.707 200.879 454.879L181.787 473.971C180.615 475.142 180.615 477.042 181.787 478.213C182.958 479.385 184.858 479.385 186.029 478.213L203 461.243L219.971 478.213C221.142 479.385 223.042 479.385 224.213 478.213C225.385 477.042 225.385 475.142 224.213 473.971L205.121 454.879ZM200 519C200 520.657 201.343 522 203 522C204.657 522 206 520.657 206 519H200ZM200 457V519H206V457H200Z" fill="#002677" fill-opacity="0.5"/>
<line x1="200" y1="520" x2="2588" y2="520" stroke="#002677" stroke-opacity="0.5" stroke-width="6"/>
</svg>
